<svg width="65" height="54" viewBox="0 0 65 54" fill="none" xmlns="http://www.w3.org/2000/svg">
<path d="M30.028 26.4904C29.8383 27.2706 29.4682 27.6095 28.7468 27.5238C28.4387 27.4866 28.1212 27.5201 27.8094 27.5238C27.336 27.5276 27.0091 27.7268 26.9941 28.224C26.979 28.7174 27.3116 29.0265 27.7568 28.98C28.8257 28.8664 28.6942 29.3468 28.4744 30.0786C28.2434 30.8439 28.1569 31.6558 28.0386 32.4509C27.954 33.0132 28.2189 33.7208 27.2684 33.8418C27.0354 33.8716 26.9697 34.2161 26.9941 34.4787C27.0279 34.8343 27.2571 35.0243 27.5802 35.1248C27.8263 35.2011 28.1607 35.0801 28.2509 35.4805C28.3279 35.8212 28.5101 36.1638 27.892 36.1396C27.3379 36.1173 26.9509 36.3687 27.0016 36.9571C27.0523 37.5678 27.5426 37.6777 28.0442 37.6125C28.7092 37.5269 29.0305 37.8099 29.3123 38.3983C30.1032 40.0537 31.3299 41.3739 32.8009 42.4725C32.6487 42.8133 32.3594 42.6736 32.1452 42.6736C26.0116 42.6829 19.876 42.668 13.7423 42.6978C13.0247 42.7016 12.8575 42.4818 12.8594 41.8022C12.8782 30.1382 12.8801 18.4742 12.8594 6.81018C12.8594 6.11563 13.0473 5.9257 13.7517 5.92756C22.7033 5.95177 31.653 5.95363 40.6046 5.92384C41.3861 5.92198 41.5195 6.1808 41.5158 6.87536C41.4876 11.5603 41.4857 16.2434 41.5158 20.9284C41.5214 21.6658 41.3373 21.8687 40.5764 21.8054C37.3001 21.5317 34.3958 22.4702 31.9198 24.6283C31.5835 24.9207 31.2416 25.0194 30.8152 25.01C29.9397 24.9914 29.0624 25.0026 28.187 25.0063C27.6384 25.0063 27.0335 25.0063 27.0053 25.74C26.9772 26.5034 27.5858 26.4941 28.1363 26.4941C28.7487 26.4941 29.3611 26.4941 30.028 26.4941V26.4904ZM21.6137 20.7254C21.6137 20.7254 21.6137 20.731 21.6137 20.7347C23.2688 20.7347 24.9238 20.7478 26.5789 20.7291C27.5558 20.718 27.7399 20.4368 27.4412 19.5114C26.6559 17.072 24.3227 15.4111 21.6851 15.4129C19.0494 15.4148 16.7181 17.0869 15.946 19.5281C15.6585 20.4387 15.8464 20.7105 16.8345 20.7198C18.4276 20.7347 20.0207 20.7236 21.6118 20.7236L21.6137 20.7254ZM21.6626 14.9046C23.3439 14.9176 24.7228 13.5974 24.7623 11.9402C24.8017 10.2662 23.389 8.86032 21.6795 8.86777C20.0075 8.87522 18.6324 10.2327 18.6286 11.8787C18.623 13.5267 19.9925 14.8916 21.6644 14.9046H21.6626ZM18.0312 35.6574C18.0312 36.3389 18.0538 37.0223 18.0237 37.7019C17.9936 38.3704 18.2792 38.6776 18.9536 38.6739C20.3607 38.6646 21.7678 38.6646 23.173 38.6739C23.7779 38.6776 24.1142 38.4486 24.1104 37.8025C24.0991 36.3463 24.1029 34.8902 24.1066 33.434C24.1066 32.8456 23.8061 32.6036 23.2312 32.6054C21.7941 32.6147 20.3551 32.6129 18.9179 32.6054C18.2867 32.6017 18.0105 32.894 18.0275 33.5178C18.0462 34.2291 18.0312 34.9423 18.0312 35.6555V35.6574ZM21.0032 30.0078C21.7527 30.0078 22.5023 29.9948 23.2519 30.0116C23.8418 30.0246 24.1142 29.7658 24.1104 29.1811C24.1029 27.7268 24.1029 26.2725 24.1104 24.8164C24.1123 24.2317 23.8361 23.984 23.2481 23.9915C21.811 24.0064 20.3757 24.0064 18.9386 23.9915C18.3149 23.984 18.0199 24.228 18.0275 24.8685C18.0462 26.293 18.0462 27.7156 18.0275 29.1401C18.0199 29.7844 18.3243 30.0283 18.9423 30.0116C19.628 29.9929 20.3156 30.0078 21.0032 30.006V30.0078ZM32.397 12.2046C30.9617 12.2046 29.5264 12.2027 28.0931 12.2046C27.5727 12.2046 27.0204 12.24 26.9997 12.9196C26.979 13.5918 27.4938 13.6905 28.0367 13.6905C30.9072 13.6905 33.7759 13.6905 36.6464 13.6905C37.1949 13.6905 37.7172 13.5732 37.704 12.9271C37.689 12.2791 37.1442 12.2009 36.6107 12.2009C35.2074 12.2009 33.804 12.2009 32.4007 12.2009L32.397 12.2046ZM31.4126 16.182C32.5379 16.182 33.665 16.1745 34.7903 16.1857C35.3182 16.1894 35.7785 16.0386 35.7954 15.4614C35.8142 14.8096 35.3201 14.6905 34.7584 14.6923C32.5059 14.7016 30.2535 14.6998 28.001 14.6923C27.4844 14.6923 27.0129 14.7854 27.0016 15.3999C26.9884 16.0609 27.4769 16.1876 28.0348 16.1838C29.1601 16.1764 30.2873 16.182 31.4126 16.182Z" fill="white"/>
<path d="M39.5775 23.2441C45.1382 23.2516 49.6055 27.6721 49.6055 33.1671C49.6055 38.7012 45.0649 43.1925 39.5136 43.1478C33.9849 43.1031 29.5006 38.6174 29.5157 33.1503C29.5307 27.6721 34.0356 23.2386 39.5794 23.246L39.5775 23.2441ZM39.6376 26.0279C35.6324 25.9981 32.3674 29.1506 32.3279 33.0889C32.2866 37.0663 35.546 40.351 39.5475 40.364C43.5264 40.377 46.7745 37.1761 46.7933 33.2248C46.812 29.24 43.6466 26.0577 39.6376 26.0261V26.0279Z" fill="white"/>
<path d="M58.112 47.7652C58.1045 48.0259 57.9955 48.2437 57.8151 48.43C57.2065 49.0556 56.6034 49.685 55.9873 50.3032C55.5063 50.7836 54.9916 50.7966 54.5013 50.3255C52.7241 48.6217 50.9507 46.9124 49.1829 45.1974C48.6494 44.6798 48.7039 44.136 49.2393 43.6686C49.6507 43.3093 49.6188 43.0449 49.2111 42.7134C48.826 42.3987 48.5029 42.0095 48.1271 41.6837C47.8003 41.4006 47.7815 41.194 48.099 40.8625C48.4409 40.5069 48.6193 40.7098 48.8504 40.9426C49.0909 41.1865 49.3651 41.4006 49.5849 41.6613C50.079 42.2479 50.513 42.5756 51.1498 41.7656C51.4861 41.3373 52.0196 41.4677 52.4029 41.8326C54.2063 43.5551 56.0004 45.2886 57.7964 47.0166C58.0086 47.2215 58.1176 47.471 58.112 47.7652Z" fill="white"/>
<path d="M19.8106 34.7946C19.867 34.8057 20.0342 34.789 20.1018 34.8616C20.8796 35.7107 21.2046 34.9398 21.5935 34.4538C21.9203 34.0442 22.3167 33.7835 22.7901 34.1298C23.3218 34.5208 23.1264 34.9845 22.7695 35.4128C22.3524 35.9118 21.9485 36.4239 21.5277 36.921C21.1351 37.3847 20.6861 37.4313 20.2352 37.0123C19.8708 36.6753 19.4894 36.3401 19.2001 35.9453C18.83 35.4388 19.1456 34.8318 19.8125 34.7946H19.8106Z" fill="white"/>
<path d="M23.0999 26.0355C23.1262 26.2682 23.0154 26.4544 22.8801 26.6276C22.6509 26.9181 22.4123 27.203 22.1775 27.4916C20.9395 29.0073 20.2689 28.9719 19.2056 27.3445C18.9914 27.0186 18.9689 26.7002 19.2262 26.4116C19.5099 26.0913 19.9363 25.9889 20.2144 26.3036C20.7817 26.9497 21.0504 26.5326 21.3772 26.095C21.5426 25.8735 21.7191 25.6426 21.9408 25.4861C22.4255 25.1417 23.0661 25.4601 23.0999 26.0355Z" fill="white"/>
</svg>
