<svg width="44" height="42" viewBox="0 0 44 42" fill="none" xmlns="http://www.w3.org/2000/svg">
<path d="M31.2739 41.0702C27.6794 41.0702 24.0872 41.0441 20.4928 41.0898C19.6279 41.1007 19.3687 40.8415 19.4057 39.9875C19.4711 38.4648 19.4036 36.9399 19.4297 35.415C19.4733 32.9969 20.5865 31.252 22.839 30.3327C24.146 29.8012 25.5032 29.396 26.8364 28.9298C27.7971 28.5921 28.1369 27.272 27.3527 26.6533C25.9345 25.5358 25.2396 24.0174 24.7059 22.377C24.549 21.8956 24.4227 21.4055 24.1373 20.972C23.7387 20.362 23.5687 19.6061 23.7953 18.9852C24.4989 17.0508 24.1046 15.0357 24.3813 13.0751C24.6863 10.9185 25.6709 9.88589 27.8712 9.85975C28.7992 9.84886 29.6335 9.65498 30.494 9.33692C33.2192 8.33266 35.5741 8.98619 37.4497 11.1668C38.3429 12.2037 38.7808 13.3736 38.7111 14.7612C38.6392 16.1903 38.3669 17.6215 38.9594 19.0462C39.2339 19.7063 39.0879 20.4905 38.5891 21.107C38.2819 21.4882 38.186 21.9522 38.0401 22.3988C37.5347 23.9237 36.9705 25.4138 35.6808 26.4856C35.4695 26.662 35.4042 26.8799 35.3737 27.1478C35.2691 28.0998 35.3737 28.8056 36.5566 29.0431C37.648 29.2631 38.6936 29.7249 39.7523 30.1018C42.1966 30.9753 43.5603 32.8902 43.5799 35.4673C43.5886 36.7743 43.582 38.0814 43.5799 39.3885C43.5799 40.9874 43.5014 41.0724 41.9395 41.0724C38.3821 41.0767 34.8247 41.0724 31.2673 41.0724L31.2739 41.0702Z" fill="white"/>
<path d="M23.5611 6.96016C23.6656 7.74004 23.3127 8.67241 23.8813 9.50239C24.0272 9.71588 23.866 9.92065 23.731 10.0906C22.9772 11.0491 22.7027 12.2015 22.7093 13.3539C22.7224 15.6674 21.3478 17.1618 19.7052 18.3425C16.5487 20.6124 16.1936 20.5972 13.061 18.3425C11.3988 17.1443 10.1027 15.5672 9.83036 13.3996C9.78244 13.0249 9.69748 12.7265 9.39903 12.4585C8.59737 11.7396 8.47973 10.7267 8.8065 9.85094C9.19644 8.80312 9.24436 7.77489 9.02216 6.76845C8.1399 2.75577 12.5904 -1.26998 16.9451 0.379099C17.9363 0.75379 18.9253 0.930244 19.9949 0.952028C22.0754 0.993418 23.0339 1.965 23.3672 4.04541C23.5175 4.98214 23.5502 5.91886 23.5611 6.96234V6.96016Z" fill="white"/>
<path d="M20.4905 29.6611C17.7261 31.9092 17.5888 34.7325 17.6716 37.6559C17.7021 38.7604 18.1661 40.2025 17.4494 40.8887C16.7937 41.5161 15.3755 41.0586 14.295 41.063C10.0187 41.0782 5.7403 41.0739 1.46402 41.0674C0.161319 41.0674 0.0131856 40.9127 0.0110072 39.6383C0.00665032 36.7388 0.0218995 33.8393 0.00011518 30.9398C-0.00642013 30.0989 0.263706 29.6523 1.18083 29.6523C7.4874 29.6654 13.7918 29.6589 20.4883 29.6589L20.4905 29.6611Z" fill="white"/>
<path d="M8.86178 27.9258C7.55472 27.9258 6.24766 27.9323 4.94278 27.9192C4.64869 27.917 4.21736 28.0543 4.19122 27.5467C4.08883 25.5643 4.11933 23.6146 5.60066 22.0266C7.10596 20.4102 9.20598 19.9396 11.1709 19.554C12.1991 19.3514 13.3319 20.5474 14.3209 21.2728C14.4277 21.3512 14.3689 21.6889 14.3449 21.9024C14.1619 23.6342 13.9223 25.3617 13.8047 27.0958C13.7524 27.8604 13.4147 27.9563 12.7808 27.9388C11.4759 27.9018 10.1688 27.9279 8.86178 27.9279V27.9258ZM10.049 24.8106C10.049 24.8106 10.049 24.7932 10.049 24.7823C10.3388 24.7823 10.6285 24.7997 10.9161 24.7779C11.4476 24.7365 11.8201 24.5013 11.7961 23.9022C11.7722 23.3162 11.4018 23.0809 10.8638 23.0744C10.2865 23.0657 9.70702 23.0657 9.13191 23.094C8.6483 23.1158 8.4261 23.4513 8.40867 23.8891C8.39124 24.3335 8.62216 24.6603 9.07963 24.7409C9.39768 24.7975 9.72662 24.7888 10.049 24.8106Z" fill="white"/>
<path d="M25.4411 27.4588C25.0293 27.7834 24.5566 27.9228 24.0382 27.9228C22.5503 27.9272 21.0624 27.9098 19.5745 27.9316C19.0604 27.9403 18.7838 27.8335 18.7446 27.2366C18.6291 25.5004 18.4788 23.7642 18.2871 22.0345C18.2152 21.3919 18.4243 21.0281 18.9864 20.7471C19.666 20.4072 20.3065 19.9912 20.9666 19.6121C21.4829 19.3158 21.814 19.3834 22.01 20.026C22.8052 22.6532 23.7092 25.2347 25.4411 27.4567V27.4588Z" fill="white"/>
<path d="M17.0303 27.031C17.2438 27.7477 16.8778 28.044 16.0087 27.9329C15.634 27.885 15.5163 27.763 15.5534 27.3904C15.7015 25.9113 15.8213 24.4321 15.9651 22.953C15.9912 22.6785 15.9825 22.2842 16.3899 22.3321C16.7145 22.3713 16.5968 22.7417 16.6208 22.9639C16.7646 24.26 16.8844 25.5584 17.0282 27.031H17.0303Z" fill="white"/>
</svg>
