<svg width="13" height="13" viewBox="0 0 13 13" fill="none" xmlns="http://www.w3.org/2000/svg">
<path d="M6.27204 12.39C4.2432 10.3716 2.12286 8.26174 0.0234375 6.17016C2.12025 4.08643 4.21967 2.00007 6.23282 0C8.28518 2.06021 10.3898 4.1727 12.484 6.27474C10.5206 8.20945 8.38976 10.3063 6.27465 12.39H6.27204ZM11.1559 6.2669C9.49568 4.61455 7.87471 3.00142 6.35047 1.48764C4.79224 3.03018 3.16865 4.63547 1.68886 6.09957C3.23663 7.70748 4.81316 9.34937 6.31125 10.9076C7.95053 9.33891 9.57412 7.78068 11.1533 6.2669H11.1559Z" fill="#C2975B"/>
<path d="M6.47525 2.94922C7.47921 3.98717 8.50408 5.04864 9.55249 6.13365C8.44395 7.135 7.30404 8.1651 6.13014 9.22658C5.27782 8.33765 4.23464 7.2448 3.17578 6.13888C4.21111 5.14015 5.29612 4.09175 6.47525 2.95183V2.94922Z" fill="#C2975B"/>
</svg>
