<svg width="27" height="21" viewBox="0 0 27 21" fill="none" xmlns="http://www.w3.org/2000/svg">
<path d="M2.98438 7.89319C3.68013 8.18229 4.30271 8.439 4.92169 8.7005C7.51396 9.79691 10.1074 10.8873 12.6925 12.0005C13.1651 12.2044 13.579 12.2212 14.0624 12.0149C18.0654 10.3091 22.0755 8.62253 26.0857 6.93474C26.4935 6.7632 26.8582 6.55807 26.8474 6.05185C26.8378 5.57922 26.4959 5.3801 26.1049 5.21695C22.0539 3.52436 18.003 1.82937 13.958 0.123581C13.5586 -0.0443584 13.2023 -0.03956 12.8077 0.12838C8.7855 1.83777 4.75974 3.54116 0.731589 5.23855C0.33933 5.40409 0.00465037 5.60921 0.00105166 6.08184C-0.00254705 6.55687 0.315339 6.83877 0.724392 6.92154C1.86278 7.15426 2.11949 7.82962 2.04632 8.92722C1.93836 10.5598 2.01753 12.2044 2.01873 13.8431C2.01873 14.0818 2.01033 14.2833 1.804 14.4848C1.22701 15.051 1.08906 15.772 1.31098 16.5301C1.41295 16.8792 1.39375 17.1827 1.29299 17.5149C1.06147 18.2791 0.84195 19.0468 0.627227 19.8157C0.551654 20.0844 0.460488 20.3771 0.744786 20.5846C0.996696 20.7682 1.23181 20.6434 1.46573 20.5055C2.18667 20.0796 2.91001 20.0964 3.61895 20.5307C3.83848 20.665 4.058 20.7514 4.28712 20.5978C4.52463 20.4395 4.50184 20.1972 4.44546 19.9501C4.31231 19.3659 4.19595 18.7793 4.0604 18.1951C3.91285 17.5569 3.80249 16.9475 3.97043 16.2638C4.15396 15.5153 3.91525 14.7919 3.2267 14.3169C3.08395 14.2185 2.98078 14.1406 2.98078 13.951C2.98438 11.9585 2.98318 9.96605 2.98318 7.89199L2.98438 7.89319Z" fill="#C2975B"/>
<path d="M6.18303 12.3993C6.18303 13.0579 6.18303 13.7176 6.18303 14.3762C6.18303 15.0504 6.47572 15.5458 7.04192 15.9212C11.4287 18.8254 17.3138 18.8338 21.6983 15.9452C22.304 15.5458 22.6027 15.036 22.5895 14.303C22.5679 13.0051 22.5644 11.706 22.5931 10.408C22.6039 9.915 22.4732 9.8958 22.0629 10.0721C19.8461 11.0258 17.6137 11.9411 15.4005 12.9019C14.7096 13.2018 14.0798 13.209 13.3876 12.9091C11.1924 11.9555 8.97922 11.045 6.78281 10.0973C6.32817 9.9018 6.13984 9.9198 6.17343 10.4824C6.21062 11.1194 6.18183 11.7599 6.18303 12.3993Z" fill="#C2975B"/>
</svg>
