<svg width="48" height="61" viewBox="0 0 48 61" fill="none" xmlns="http://www.w3.org/2000/svg">
<path d="M38.3171 31.8563C38.3171 38.4918 38.3171 45.1272 38.3171 51.7627C38.3171 53.2792 38.0462 53.5469 36.5342 53.5469C26.7936 53.5469 17.0531 53.5469 7.3125 53.5469C5.85879 53.5469 5.57593 53.2656 5.57422 51.8016C5.57422 38.5036 5.57422 25.204 5.57422 11.906C5.57422 10.4453 5.85879 10.1641 7.31422 10.1641C17.0839 10.1641 26.8536 10.1641 36.6216 10.1641C38.0119 10.1641 38.3154 10.464 38.3154 11.867C38.3171 18.5312 38.3154 25.1938 38.3154 31.858L38.3171 31.8563ZM21.7382 37.4497C19.1702 37.4497 16.6022 37.4497 14.0325 37.4497C13.2902 37.4497 12.5479 37.4344 11.8074 37.4565C11.1079 37.4768 10.6468 37.8479 10.6485 38.546C10.6485 39.2458 11.1199 39.5932 11.8142 39.6389C11.9565 39.6474 12.0988 39.6423 12.2428 39.6423C18.5496 39.6423 24.8565 39.6423 31.1634 39.6423C31.3914 39.6423 31.6279 39.6677 31.8456 39.622C32.4456 39.4949 32.8142 39.1306 32.7919 38.5003C32.7714 37.9123 32.4079 37.5768 31.8405 37.47C31.6194 37.4277 31.3845 37.4514 31.1565 37.4514C28.0176 37.4514 24.8788 37.4514 21.7399 37.4514L21.7382 37.4497ZM21.6954 31.8157C20.4679 31.8157 19.2422 31.8157 18.0148 31.8157C15.9902 31.8157 13.9639 31.8208 11.9394 31.8157C11.2108 31.814 10.7119 32.0986 10.6434 32.8578C10.5834 33.5135 11.1114 33.9541 11.9445 33.9981C12.0576 34.0049 12.1725 33.9998 12.2874 33.9998C18.5925 33.9998 24.8959 33.9998 31.2011 33.9964C31.4839 33.9964 31.7805 33.9896 32.0445 33.9066C32.5656 33.744 32.8365 33.3525 32.7902 32.8103C32.7439 32.2732 32.4251 31.9326 31.8799 31.8445C31.6296 31.8038 31.3674 31.8174 31.1119 31.8174C27.9748 31.8174 24.8359 31.8174 21.6988 31.8174L21.6954 31.8157ZM21.7091 28.3251C23.5056 28.3251 25.3039 28.3251 27.1005 28.3251C28.6125 28.3251 30.1245 28.3251 31.6365 28.32C32.3068 28.3166 32.7388 27.9811 32.7816 27.3186C32.8279 26.6019 32.3822 26.2426 31.6982 26.1528C31.5011 26.1274 31.2988 26.141 31.0999 26.141C24.8514 26.141 18.6045 26.141 12.3559 26.1444C12.0456 26.1444 11.7182 26.141 11.4268 26.2291C10.9142 26.3816 10.6022 26.7527 10.6416 27.3C10.6828 27.8744 11.0222 28.2285 11.6102 28.3065C11.8622 28.3404 12.1228 28.3251 12.3799 28.3251C15.4896 28.3251 18.5994 28.3251 21.7091 28.3251ZM13.9331 22.769C13.9331 22.769 13.9331 22.7673 13.9331 22.7656C14.6445 22.7656 15.3594 22.7944 16.0691 22.7572C16.8199 22.7182 17.2039 22.2878 17.1662 21.5372C17.1096 20.3917 16.5234 19.5852 15.5102 19.0616C15.2839 18.9447 14.9034 18.926 15.2376 18.5007C15.7811 17.8128 15.6508 16.9893 15.5496 16.2217C15.4536 15.4948 14.9582 15.0136 14.1902 14.9017C13.3948 14.7865 12.7434 15.078 12.4331 15.7998C12.0902 16.5996 12.0302 17.5061 12.4811 18.2516C12.8359 18.8396 12.6045 18.9311 12.1571 19.1666C11.2691 19.636 10.7856 20.4171 10.6622 21.3982C10.5611 22.198 10.9828 22.7148 11.7971 22.7589C12.5068 22.7961 13.2216 22.7673 13.9331 22.7673V22.769ZM26.5725 20.507C24.9165 20.507 23.2622 20.5137 21.6062 20.5036C20.8622 20.5002 20.3925 20.8323 20.3051 21.5609C20.2296 22.1929 20.8108 22.6911 21.6131 22.6928C24.8959 22.7029 28.1771 22.7029 31.4599 22.6928C32.3051 22.6911 32.8005 22.2624 32.7988 21.5931C32.7971 20.9289 32.2999 20.512 31.4531 20.507C29.8262 20.4968 28.1994 20.5036 26.5725 20.5036V20.507ZM26.5776 14.8729C24.9525 14.8729 23.3256 14.8661 21.7005 14.8763C20.8331 14.8814 20.3274 15.266 20.2982 15.9082C20.2674 16.586 20.7971 17.0435 21.6971 17.0469C24.9491 17.0571 28.2011 17.0588 31.4531 17.0469C32.3119 17.0435 32.7936 16.6216 32.7971 15.954C32.7988 15.283 32.3222 14.8831 31.4565 14.878C29.8314 14.8661 28.2045 14.8746 26.5794 14.8746L26.5776 14.8729ZM14.4936 47.5011C15.3765 47.5011 16.2611 47.5028 17.1439 47.5011C17.8725 47.4994 18.3611 47.1894 18.4091 46.4286C18.4485 45.7948 17.9514 45.3441 17.1645 45.3339C15.4262 45.3102 13.6879 45.3119 11.9496 45.3306C11.1045 45.339 10.5851 45.7898 10.6399 46.4506C10.7034 47.2114 11.2056 47.5028 11.9274 47.5011C12.7828 47.5011 13.6365 47.5011 14.4919 47.5011H14.4936ZM29.3634 47.5011C30.2462 47.5011 31.1308 47.5198 32.0136 47.4961C32.8056 47.4757 33.2908 47.0403 33.2479 46.3981C33.1999 45.683 32.7371 45.3424 32.0531 45.3356C30.2582 45.317 28.4634 45.3187 26.6668 45.3356C25.9776 45.3424 25.5251 45.6898 25.4771 46.4015C25.4342 47.0335 25.9331 47.4774 26.7131 47.4978C27.5959 47.5198 28.4805 47.5028 29.3634 47.5028V47.5011Z" fill="white"/>
</svg>
