<svg width="23" height="17" viewBox="0 0 23 17" fill="none" xmlns="http://www.w3.org/2000/svg">
<path d="M0.601081 10.1958C0.396049 10.077 0.0633216 10.1616 0.0642209 9.9198C0.0642209 9.72326 0.35828 9.66771 0.548024 9.58995C0.712589 9.52244 0.879853 9.43186 1.05251 9.41648C1.63254 9.36692 1.74404 9.01742 1.70358 8.55854C1.682 8.31756 1.66851 8.07402 1.61635 7.83903C1.51473 7.37929 1.25934 7.03577 0.758452 6.88537C0.575003 6.82983 0.379862 6.72814 0.386157 6.50682C0.392452 6.28122 0.624462 6.28208 0.784531 6.22739C0.994959 6.15561 1.21078 6.10092 1.45538 6.02914C0.713489 5.07976 0.578599 4.03296 0.818703 2.93832C0.999455 2.11541 1.52732 1.71378 2.40231 1.59927C6.40762 1.0763 10.4111 0.548205 14.4147 0.0149801C14.6305 -0.0140738 14.8256 -0.00125592 15.0307 0.0568519C17.4371 0.747309 19.8444 1.43349 22.2499 2.12566C22.4118 2.17181 22.6438 2.17608 22.6582 2.3974C22.6735 2.6418 22.4496 2.71785 22.2598 2.8033C21.5314 3.12973 21.0719 4.33461 21.3974 5.04472C21.4667 5.19598 21.6079 5.19427 21.7266 5.23101C22.0971 5.34466 22.4685 5.45404 22.8102 5.63606C22.8992 5.68391 23.0116 5.73945 22.999 5.85225C22.9855 5.9753 22.8471 5.97616 22.7535 6.0035C22.4685 6.08639 22.1807 6.15817 21.8929 6.23423C22.0017 6.47691 22.1591 6.7102 22.2113 6.96314C22.4559 8.15264 22.3776 9.28574 21.4487 10.2368C21.4298 10.2992 21.491 10.2949 21.526 10.312C21.6897 10.3898 21.9523 10.3624 21.9559 10.6145C21.9595 10.8589 21.7311 10.9264 21.5413 11.0093C20.8273 11.3221 20.3579 12.5928 20.7032 13.2644C20.7698 13.3935 20.8975 13.3823 21.0027 13.4216C21.3363 13.5456 21.6771 13.6549 22.0071 13.7865C22.1357 13.8378 22.3273 13.8899 22.2877 14.0668C22.2562 14.2095 22.0719 14.1993 21.9478 14.2275C20.3201 14.6052 18.6898 14.976 17.0612 15.3512C14.7636 15.8801 12.4651 16.4065 10.1692 16.944C9.82482 17.0243 9.51458 17.0218 9.17016 16.9132C6.61356 16.1091 4.05335 15.3153 1.48686 14.5411C0.87086 14.3556 0.473386 13.9908 0.282742 13.4345C-0.0958479 12.3279 -0.187573 11.2324 0.601081 10.2001V10.1958ZM10.4219 6.353C10.4309 6.353 10.439 6.353 10.448 6.353C10.448 6.02572 10.4381 5.69844 10.4516 5.37201C10.4597 5.17632 10.4111 5.06609 10.1917 4.99858C7.58836 4.20131 4.98859 3.39463 2.38972 2.58625C2.13343 2.50678 1.9185 2.54182 1.73595 2.7281C1.22877 3.24765 1.39153 5.02251 1.98864 5.43182C2.09386 5.50446 2.22875 5.54633 2.35554 5.58051C4.88877 6.25559 7.42379 6.92297 9.95432 7.60574C10.2592 7.68778 10.3923 7.6741 10.3806 7.33315C10.3689 7.00757 10.4066 6.67943 10.4219 6.353ZM12.6224 10.371C12.6413 10.7547 12.6827 11.082 12.6665 11.4075C12.6485 11.7698 12.7834 11.7886 13.1107 11.6998C15.6413 11.0153 18.1754 10.3445 20.7113 9.67968C21.0845 9.58141 21.2985 9.35923 21.4217 9.03365C21.6339 8.47138 21.669 7.8903 21.5431 7.31093C21.4091 6.69567 21.1016 6.54356 20.4703 6.73925C18.2536 7.42544 16.036 8.11162 13.8203 8.80208C13.4246 8.92513 12.9066 8.96615 12.6764 9.22849C12.4237 9.51646 12.6476 10.0189 12.6215 10.371H12.6224ZM9.68004 14.5428C9.69983 14.5428 9.71961 14.5428 9.73939 14.5428C9.73939 14.2446 9.71871 13.9438 9.74569 13.6472C9.76997 13.3747 9.67735 13.2482 9.39498 13.1619C6.86265 12.3894 4.33482 11.6015 1.80519 10.8205C1.27013 10.6555 0.966182 10.8008 0.830393 11.3118C0.660432 11.9493 0.709892 12.5834 0.95629 13.1969C1.05971 13.455 1.23146 13.6635 1.53811 13.7447C4.14328 14.4368 6.74755 15.1298 9.35001 15.8297C9.58652 15.8929 9.68544 15.8468 9.68184 15.6084C9.67645 15.2529 9.68004 14.8974 9.68004 14.5428ZM1.87714 7.20924C2.15141 7.88432 2.20986 8.51581 2.10285 9.15585C2.06328 9.38999 2.17839 9.44041 2.38072 9.48826C5.54343 10.2326 8.70524 10.9803 11.8644 11.7365C12.1944 11.8151 12.2438 11.7015 12.2277 11.4272C12.1908 10.8307 12.1539 10.2334 12.1656 9.63695C12.1728 9.30283 12.0613 9.17807 11.716 9.11227C9.25289 8.64655 6.79521 8.15862 4.33482 7.67923C3.53538 7.52371 2.73503 7.37331 1.87714 7.21009V7.20924ZM21.1564 3.13229C21.0323 3.13998 20.973 3.13742 20.9163 3.14853C19.1448 3.49461 17.3732 3.84155 15.6008 4.18763C14.1656 4.46792 12.7303 4.74479 11.296 5.02849C11.1072 5.06609 10.8878 5.05241 10.8887 5.3609C10.8905 6.04281 10.8554 6.72558 10.8185 7.40749C10.805 7.65872 10.9093 7.70059 11.1351 7.64505C11.7142 7.5032 12.2942 7.36647 12.8742 7.22975C15.4416 6.62389 18.0081 6.01376 20.5782 5.41815C20.8831 5.34723 20.9919 5.24725 20.9343 4.93278C20.8264 4.33461 20.9181 3.74413 21.1555 3.13144L21.1564 3.13229ZM20.4397 11.3862C20.3129 11.3093 20.2248 11.346 20.1394 11.3622C18.3678 11.7083 16.599 12.0638 14.8256 12.3979C14.1197 12.5312 13.4426 12.8508 12.7492 12.8995C11.9983 12.9525 11.2897 13.1516 10.5541 13.2319C10.2915 13.2601 10.1809 13.3755 10.1818 13.6464C10.1854 14.2856 10.1647 14.9265 10.1252 15.5648C10.1072 15.8639 10.216 15.8964 10.4876 15.8314C13.6323 15.0811 16.7779 14.3334 19.9271 13.6011C20.2239 13.5319 20.2644 13.4046 20.2365 13.1585C20.1691 12.5603 20.1969 11.9664 20.4388 11.3853L20.4397 11.3862Z" fill="#C2975B" fill-opacity="0.62"/>
</svg>
