<svg width="16" height="15" viewBox="0 0 16 15" fill="none" xmlns="http://www.w3.org/2000/svg">
<path d="M15.0334 7.2675C15.0334 8.33645 15.0357 9.4054 15.0334 10.4743C15.0275 12.761 13.1965 14.5287 10.8269 14.5322C8.62534 14.5356 6.42375 14.535 4.22157 14.5322C1.83324 14.5293 0.00513841 12.765 0.00220218 10.459C-0.000734059 8.33077 -0.000734059 6.20252 0.00220218 4.0737C0.00572566 1.76834 1.83383 0.00454148 4.22275 0.00170305C6.41494 -0.000567684 8.60655 -0.000567684 10.7987 0.00170305C13.2059 0.00397379 15.0299 1.76493 15.0334 4.08903C15.0351 5.14833 15.0334 6.2082 15.0334 7.2675ZM7.49548 13.2356C8.5719 13.2356 9.64774 13.2373 10.7242 13.2339C10.9385 13.2333 11.1575 13.2361 11.3666 13.197C12.7648 12.9353 13.6821 11.8788 13.6892 10.501C13.6992 8.34496 13.6927 6.18833 13.6903 4.03226C13.6903 3.87218 13.6868 3.70868 13.6557 3.55257C13.3862 2.20205 12.2927 1.30795 10.871 1.30113C8.63062 1.29091 6.39028 1.29773 4.14993 1.3C3.99431 1.3 3.83516 1.3034 3.68307 1.33179C2.27602 1.59065 1.35228 2.65392 1.34641 4.04702C1.33701 6.19401 1.34289 8.34099 1.34582 10.4874C1.34582 10.6566 1.35052 10.8297 1.38458 10.9949C1.66 12.3449 2.75169 13.2219 4.18047 13.2339C5.28566 13.2429 6.39145 13.2356 7.49724 13.2361L7.49548 13.2356Z" fill="#C2975B"/>
<path d="M7.50883 3.52149C9.63995 3.51865 11.39 5.20808 11.3894 7.26764C11.3894 9.32663 9.63819 11.0155 7.50649 11.0121C5.38887 11.0087 3.64592 9.32663 3.64064 7.28013C3.63535 5.2183 5.37889 3.52433 7.50883 3.52149ZM7.50649 9.71322C8.9194 9.71549 10.0434 8.63689 10.0457 7.27502C10.0481 5.9086 8.93232 4.82262 7.52352 4.82035C6.11001 4.81808 4.98661 5.89668 4.98426 7.25855C4.98191 8.62497 6.09709 9.71095 7.50649 9.71322Z" fill="#C2975B"/>
<path d="M12.5222 3.37858C12.5205 3.90199 12.0965 4.31413 11.5568 4.31526C11.0259 4.3164 10.5814 3.89631 10.5743 3.38596C10.5667 2.85915 11.0095 2.43509 11.5638 2.4385C12.1053 2.4419 12.524 2.85177 12.5222 3.37858Z" fill="#C2975B"/>
</svg>
