<svg width="11" height="14" viewBox="0 0 11 14" fill="none" xmlns="http://www.w3.org/2000/svg">
<path d="M2.31226 13.9776C2.29957 13.3729 2.25985 12.7672 2.27971 12.1636C2.3244 10.8071 2.69402 9.5075 3.04434 8.20681C3.1271 7.89928 3.20599 7.59121 3.28819 7.28369C3.3897 6.90502 3.40625 6.55755 3.26833 6.15372C2.97924 5.30939 3.13647 4.47546 3.63409 3.72854C3.92428 3.29297 4.33638 3.01773 4.89027 3.09926C5.68359 3.21581 6.04163 3.74441 5.85847 4.57013C5.71118 5.23443 5.48499 5.88122 5.32058 6.54223C5.22459 6.92801 5.14681 7.32527 5.12474 7.7209C5.09881 8.19039 5.3581 8.50722 5.80662 8.66864C6.57677 8.94662 7.41091 8.69929 7.97804 8.01748C8.57606 7.29901 8.84915 6.44866 8.981 5.54305C9.07534 4.89571 9.05713 4.25111 8.90487 3.61527C8.5871 2.28722 7.66799 1.57422 6.3743 1.34111C4.39817 0.985431 2.29074 2.30363 1.7352 4.20241C1.48805 5.04674 1.4886 5.87191 2.01711 6.6369C2.35143 7.12117 2.30343 7.61091 2.00056 8.09135C1.03677 7.97534 0.287586 7.21966 0.0956003 6.16576C-0.51125 2.83824 1.87257 0.617167 4.37224 0.125782C5.4723 -0.0903611 6.56904 -0.0252445 7.64096 0.300339C9.82838 0.965185 11.025 2.59036 10.9996 4.8689C10.9847 6.21993 10.6548 7.48396 9.82893 8.58438C9.04444 9.62953 8.00121 10.1915 6.6711 10.1893C6.17238 10.1888 5.70952 10.0624 5.29135 9.78602C5.0486 9.6257 4.80531 9.46482 4.53664 9.28753C4.41086 9.83691 4.30659 10.3589 4.16978 10.8728C3.91048 11.8462 3.57892 12.7901 2.87718 13.5546C2.73154 13.7133 2.56272 13.8523 2.40494 14C2.3735 13.9923 2.3415 13.9841 2.31005 13.9765L2.31226 13.9776Z" fill="#C2975B"/>
</svg>
