<svg width="87" height="120" viewBox="0 0 87 120" fill="none" xmlns="http://www.w3.org/2000/svg">
<path d="M42.426 73.0907C50.2517 73.2084 58.3427 67.9234 60.3398 58.6666C60.9021 56.0606 60.8629 53.4451 60.2015 50.8521C60.0838 50.3907 59.968 49.9274 59.8541 49.4641C59.8036 49.2567 59.9475 48.9522 60.1361 48.8607C60.1903 48.8345 60.2389 48.7972 60.2949 48.7766C62.7777 47.9023 65.1746 46.83 67.5135 45.625C67.6013 45.5802 67.7694 45.5727 67.8329 45.625C67.9039 45.6848 67.9432 45.8473 67.9189 45.9445C67.8199 46.348 67.7022 46.7497 67.5714 47.1457C64.9672 55.0256 62.3593 62.9036 59.7513 70.7835C54.5373 86.5433 49.3251 102.303 44.1111 118.063C43.9616 118.517 43.8215 118.975 43.6422 119.415C43.56 119.619 43.4049 119.8 43.2555 119.97C43.1602 120.079 42.9883 119.888 42.8407 119.468C42.7006 119.074 42.5699 118.677 42.4391 118.28C37.0849 102.126 31.7308 85.9735 26.3804 69.8195C23.8266 62.1115 21.2785 54.4016 18.7322 46.6917C18.6014 46.2976 18.5005 45.8922 18.4127 45.4849C18.394 45.3952 18.4818 45.2738 18.5453 45.1823C18.5659 45.1524 18.6649 45.1524 18.7172 45.1711C18.9395 45.2533 19.1637 45.3355 19.3785 45.4363C21.1103 46.2453 22.8701 46.9888 24.6692 47.637C24.8933 47.7174 25.1082 47.8238 25.3268 47.921C25.5621 48.0256 25.7079 48.2722 25.6481 48.4852C25.5509 48.8308 25.4463 49.1727 25.3417 49.5164C24.7831 51.3565 24.4375 53.2303 24.473 55.1601C24.6187 63.3389 29.9505 70.068 37.3278 72.3285C39.0503 72.8553 40.8119 73.1635 42.4316 73.0907H42.426Z" fill="white"/>
<path d="M59.638 42.238C59.638 43.06 59.6454 43.7157 59.6286 44.3714C59.6268 44.4574 59.5128 44.5844 59.4268 44.6106C59.3353 44.6386 59.1765 44.6031 59.113 44.534C58.745 44.1416 58.405 43.725 58.0407 43.3309C54.9041 39.9364 51.0706 37.7301 46.559 36.783C39.2246 35.2436 31.9388 37.6498 26.9583 42.621C26.7042 42.8732 26.4669 43.1422 26.211 43.3925C26.0074 43.5924 25.8336 43.9754 25.5273 43.8614C25.092 43.6989 25.3106 43.2431 25.3218 42.9236C25.3498 42.1483 25.4451 41.3768 25.4992 40.6034C25.5927 39.2938 25.6748 37.9823 25.7608 36.6709C25.7869 36.2786 25.6281 35.9778 25.3031 35.763C25.2041 35.6976 25.0976 35.6415 24.993 35.5836C22.6354 34.2946 20.2796 33.0018 17.9201 31.7184C17.7128 31.6063 17.4811 31.5372 17.2607 31.4531C17.1392 31.4064 16.8721 31.5372 16.8104 31.668C16.76 31.7744 16.6797 31.8753 16.6572 31.9874C16.0912 34.7953 15.5345 37.605 14.9647 40.4128C14.89 40.7846 14.8993 41.1264 15.1198 41.4384C15.5382 42.0306 15.5532 42.677 15.3159 43.3178C15.116 43.8614 15.1123 44.364 15.3888 44.8702C15.4168 44.9225 15.4224 44.9842 15.4429 45.0402C15.8577 46.12 15.7886 47.1419 15.0861 48.0947C14.9329 48.302 14.946 48.5337 15.0394 48.7709C15.1702 49.1035 15.3327 49.4323 15.3981 49.7798C15.4523 50.0618 15.4187 50.3757 15.3514 50.6578C15.3178 50.796 15.1328 50.9156 14.9909 51.0015C14.8993 51.0576 14.7573 51.065 14.6434 51.0501C13.3413 50.8782 12.056 50.6223 10.795 50.2487C10.3728 50.1235 10.0869 49.436 10.3242 49.0549C10.5745 48.6533 10.894 48.2964 11.1779 47.9191C11.3274 47.7192 11.3778 47.4913 11.3274 47.2447C11.3031 47.127 11.2863 47.0074 11.2433 46.8972C10.9052 46.021 11.1742 45.2607 11.688 44.547C11.7926 44.4032 11.9103 44.265 12.0392 44.1417C12.3138 43.8764 12.4558 43.57 12.4128 43.1814C12.3941 43.0039 12.3922 42.8246 12.3922 42.6453C12.3922 42.2716 12.5249 41.9466 12.7677 41.6645C12.8854 41.5281 12.9919 41.3805 13.1264 41.2666C13.5673 40.8967 13.7298 40.4128 13.8214 39.8617C14.2604 37.2126 14.7237 34.5673 15.1758 31.9202C15.2262 31.6269 15.2449 31.3279 15.286 31.0309C15.357 30.506 15.2038 30.1043 14.7144 29.8372C13.6682 29.2636 12.6295 28.6733 11.5927 28.0811C11.3349 27.9335 11.0976 27.7542 10.8547 27.5842C10.7352 27.5001 10.7819 27.2124 10.9313 27.1395C11.3591 26.9303 11.7832 26.7099 12.2222 26.5249C19.0317 23.6237 25.8411 20.728 32.6524 17.8286C36.002 16.4032 39.3498 14.9722 42.7012 13.5468C44.1584 12.9266 44.1509 12.9229 45.4923 13.7841C54.5902 19.6183 63.6919 25.4489 72.7917 31.2812C73.595 31.7969 74.4001 32.3125 75.2016 32.8318C75.394 32.957 75.678 33.056 75.5995 33.3437C75.5734 33.4408 75.3137 33.5044 75.1549 33.5268C74.3871 33.637 73.6174 33.7341 72.8458 33.8238C71.1851 34.0162 69.5261 34.2086 67.8635 34.3861C65.7861 34.6084 63.7068 34.8083 61.6294 35.0288C61.1381 35.0811 60.6748 34.9895 60.2246 34.8233C59.552 34.5767 58.8907 34.3039 58.22 34.0499C55.868 33.1569 53.445 32.5142 50.9604 32.1443C48.6476 31.8006 46.318 31.7632 43.9959 32.079C43.4691 32.1499 42.9553 32.3368 42.4434 32.4918C42.3818 32.5105 42.3519 32.6674 42.3332 32.7646C42.3276 32.7907 42.4191 32.8673 42.4677 32.8673C43.0637 32.8897 43.6577 32.9159 44.2537 32.914C48.8867 32.9065 53.2283 34.0611 57.3215 36.1926C57.7437 36.4131 58.1584 36.6578 58.5451 36.9362C58.9449 37.222 59.212 37.6162 59.2587 38.1281C59.3895 39.5553 59.5203 40.9807 59.6361 42.2473L59.638 42.238Z" fill="white"/>
<path d="M42.4553 70.4807C34.8014 70.6955 26.6675 64.5661 26.4844 54.5322C26.7366 44.7262 34.5791 38.5781 42.558 38.6342C50.664 38.6902 58.23 45.0308 58.4318 54.5453C58.2786 64.3905 50.2716 70.6936 42.4553 70.4807Z" fill="white"/>
<path d="M73.0387 9.52834C73.3637 9.07811 73.431 9.07624 73.4459 9.19954C73.4795 9.48723 73.5263 9.7768 73.5281 10.0664C73.5337 11.0303 73.6981 11.97 73.9783 12.8873C74.5014 14.6079 75.4785 15.9922 77.0234 16.9524C77.3242 17.1392 77.6175 17.3391 77.9108 17.5427C77.9463 17.567 77.965 17.6455 77.9575 17.6941C77.9501 17.7482 77.9127 17.8342 77.8716 17.8454C77.6437 17.907 77.412 17.9519 77.1804 17.9986C76.6554 18.1032 76.123 18.1798 75.6037 18.3087C73.6888 18.7832 72.3045 19.919 71.4582 21.705C71.3816 21.8675 71.3256 22.0394 71.2378 22.1944C71.1836 22.2935 71.0902 22.3682 71.0136 22.456C70.9594 22.3794 70.8735 22.3103 70.8548 22.2262C70.7315 21.7031 70.6493 21.1707 70.5036 20.6551C70.3597 20.1395 70.1916 19.6257 69.9749 19.1363C69.1865 17.3578 67.9012 16.0968 66.0443 15.4448C65.9621 15.4149 65.9135 15.2655 65.8687 15.1627C65.8575 15.1366 65.9116 15.06 65.9527 15.0394C66.0574 14.9852 66.1694 14.946 66.2797 14.9068C66.5618 14.8077 66.8439 14.7143 67.1259 14.6135C69.7003 13.685 71.7179 12.1027 72.9807 9.63295C73.0592 9.4779 73.1638 9.33592 73.0405 9.53208L73.0387 9.52834Z" fill="white"/>
<path d="M16.2255 13.2906C16.1788 13.2663 16.0984 13.2495 16.091 13.2158C15.9471 12.6386 15.8332 12.0538 15.665 11.4841C15.5137 10.9703 15.3437 10.4566 15.1158 9.97458C14.4302 8.52489 13.3934 7.40773 11.9119 6.73893C11.6429 6.6175 11.372 6.50167 11.1067 6.3709C11.0675 6.35221 11.0432 6.27375 11.0395 6.22144C11.0357 6.17474 11.0582 6.09628 11.0899 6.0832C11.4206 5.95056 11.7531 5.81792 12.0912 5.7077C14.7552 4.83527 16.8308 3.2436 18.1553 0.736535C18.2095 0.633786 18.2898 0.542247 18.3701 0.456311C18.4037 0.420816 18.4729 0.404001 18.5233 0.407737C18.5681 0.411474 18.6447 0.450708 18.6485 0.480598C18.7344 1.42962 18.8166 2.37678 19.0427 3.30899C19.5415 5.37518 20.597 7.03596 22.4745 8.11202C22.6818 8.22971 22.8985 8.33247 23.0966 8.4651C23.1806 8.52115 23.289 8.65005 23.2722 8.71917C23.2516 8.80884 23.1265 8.92093 23.0312 8.93961C22.7397 8.99566 22.439 8.9994 22.1457 9.04797C21.7347 9.11522 21.3237 9.18996 20.9202 9.28897C19.0165 9.76161 17.5948 10.8451 16.7299 12.6274C16.6271 12.8385 16.5057 13.0402 16.3805 13.2401C16.3581 13.2756 16.2797 13.2737 16.2255 13.2887V13.2906Z" fill="white"/>
<path d="M49.7805 5.9583C49.7656 6.00687 49.7656 6.07412 49.732 6.10588C49.6927 6.14324 49.6255 6.16192 49.5676 6.16753C47.5331 6.33566 45.9153 7.18007 44.8841 9.00713C44.8486 9.07065 44.6842 9.07252 44.5796 9.07812C44.5403 9.07812 44.4806 9.01647 44.4581 8.9679C44.4096 8.86141 44.3722 8.74746 44.3386 8.63537C44.2545 8.35141 44.1798 8.06184 44.0901 7.77975C43.638 6.35435 42.7992 5.24092 41.4616 4.53102C41.3066 4.44882 41.1608 4.34234 41.0226 4.23399C40.989 4.20784 40.9722 4.10882 40.9946 4.07519C41.0544 3.98552 41.1254 3.87156 41.2169 3.84167C43.2644 3.14485 44.9177 1.94736 46.0592 0.0829369C46.0853 0.0399692 46.1768 -0.0123378 46.2049 0.00260746C46.2927 0.0493114 46.4141 0.114701 46.4347 0.193163C46.5187 0.538772 46.5692 0.893723 46.6383 1.24494C46.7074 1.59428 46.756 1.9511 46.8587 2.29297C47.2678 3.65859 48.0562 4.74586 49.2761 5.50621C49.4685 5.62764 49.7189 5.68928 49.7843 5.9583H49.7805Z" fill="white"/>
<path d="M69.3182 47.2617L86.2536 85.4648L45.6875 118.154L69.3182 47.2617Z" fill="white"/>
<path d="M0 85.8586L16.5415 47.2617L40.1723 118.154L0 85.8586Z" fill="white"/>
</svg>
