<svg width="16" height="13" viewBox="0 0 16 13" fill="none" xmlns="http://www.w3.org/2000/svg">
<path d="M4.71964 10.1832C3.21572 10.0134 2.20803 9.28546 1.65032 7.89071H3.00341C1.46146 7.31632 0.597639 6.2712 0.477858 4.63296C0.942407 4.7597 1.3797 4.87894 1.817 4.99882C1.83601 4.96947 1.85503 4.94075 1.87404 4.91141C1.2295 4.38822 0.764319 3.75703 0.597639 2.9454C0.430959 2.13377 0.5406 1.3671 0.969659 0.611034C2.77905 2.68693 5.02511 3.84193 7.72178 4.01737C7.77692 3.44798 7.75537 2.90045 7.89226 2.39349C8.52286 0.0560058 11.4673 -0.782468 13.2824 0.842035C13.444 0.986255 13.5854 1.04244 13.7888 0.969398C14.37 0.762121 14.953 0.560463 15.5589 0.348191C15.3523 1.02809 14.882 1.53129 14.3123 1.96583C14.325 1.99392 14.3383 2.02202 14.3509 2.05011C14.889 1.90527 15.4271 1.76105 16 1.60684C15.6704 2.11379 15.2826 2.55582 14.8104 2.90794C14.5145 3.12895 14.4042 3.35496 14.4035 3.72956C14.3991 7.83764 11.5915 11.5393 7.62481 12.6256C5.07518 13.3242 2.61428 13.047 0.285827 11.7778C0.188228 11.7247 0.0963321 11.6598 0 11.568C1.72257 11.6517 3.28987 11.2508 4.71964 10.1832Z" fill="#C2975B"/>
</svg>
