<svg width="8" height="13" viewBox="0 0 8 13" fill="none" xmlns="http://www.w3.org/2000/svg">
<path d="M2.32084 7.18953H0V4.88566H2.31331C2.31331 4.27641 2.29575 3.69359 2.31959 3.11228C2.33401 2.75913 2.36726 2.39887 2.47013 2.0574C2.83832 0.838399 3.94041 0.102118 5.51356 0.0126867C5.9815 -0.0137361 6.45444 0.00709728 6.92426 0.0213249C7.27803 0.0319957 7.63055 0.0655323 8 0.0904307V2.16411C7.64623 2.16411 7.29308 2.1697 6.94057 2.1631C5.55684 2.1382 5.12278 2.3633 5.18426 3.57011C5.20621 3.99897 5.18802 4.42936 5.18802 4.88414H7.77293C7.69766 5.38668 7.62678 5.8633 7.55465 6.33891C7.52391 6.54013 7.46307 6.74135 7.4637 6.94257C7.4637 7.16564 7.34076 7.2068 7.09926 7.20121C6.58742 7.18953 6.07496 7.19766 5.56249 7.19766C5.45021 7.19766 5.33793 7.19766 5.1968 7.19766V13H2.32147V7.18953H2.32084Z" fill="#C2975B"/>
</svg>
