<svg width="14" height="18" viewBox="0 0 14 18" fill="none" xmlns="http://www.w3.org/2000/svg">
<path d="M0 5.99585C0.0435012 2.45738 3.56546 -0.304443 7.61107 0.0270035C12.6728 0.442014 15.5603 5.0914 13.1185 8.91567C11.5459 11.3791 9.94782 13.8298 8.36044 16.2861C8.05593 16.7566 7.75799 17.2306 7.44527 17.6969C7.17605 18.0986 6.81491 18.1028 6.55308 17.699C4.61933 14.7118 2.68312 11.7259 0.767427 8.73029C0.227356 7.88552 -0.0106699 6.9621 0.000820952 5.99515L0 5.99585ZM6.98481 3.01353C5.05435 3.01845 3.48009 4.37162 3.49323 6.01341C3.50636 7.66221 5.08636 9.00134 7.01108 8.99643C8.93252 8.99151 10.5133 7.63061 10.5018 5.99023C10.4904 4.33932 8.91774 3.00792 6.98481 3.01283V3.01353Z" fill="#C2975B"/>
</svg>
