<svg width="40" height="54" viewBox="0 0 40 54" fill="none" xmlns="http://www.w3.org/2000/svg">
<path d="M4.74322 29.515C4.74322 23.4635 4.74322 17.412 4.74322 11.3589C4.74322 9.73255 5.31015 9.15591 6.92432 9.15591C12.1983 9.15273 17.4739 9.16865 22.7479 9.1368C23.4582 9.13202 23.622 9.34706 23.6094 10.0336C23.5668 12.3688 23.5873 14.7056 23.5952 17.0409C23.6031 19.1913 24.8346 20.4609 26.959 20.4784C29.3464 20.4975 31.7353 20.5007 34.1227 20.472C34.6802 20.4656 34.8204 20.6441 34.8188 21.192C34.8031 30.1108 34.8094 39.0295 34.8046 47.9467C34.8046 49.2163 34.1684 49.8582 32.9101 49.8582C24.1716 49.863 15.433 49.863 6.69597 49.8582C5.37314 49.8582 4.74479 49.2051 4.74479 47.8288C4.74007 41.7232 4.74322 35.6191 4.74322 29.5134V29.515ZM24.8015 43.203C26.0078 43.203 27.2141 43.2126 28.4188 43.1998C29.2393 43.1918 29.7369 42.757 29.7605 42.0688C29.7842 41.3504 29.2739 40.8439 28.4204 40.8359C26.0346 40.8168 23.6487 40.8184 21.2629 40.8343C20.4157 40.8391 19.8723 41.3361 19.8723 42.029C19.8723 42.7267 20.4094 43.1934 21.2629 43.1998C22.4424 43.211 23.622 43.203 24.8031 43.2014L24.8015 43.203ZM24.8031 27.3232C25.9826 27.3232 27.1637 27.3359 28.3432 27.3184C29.1968 27.3056 29.7353 26.8294 29.7369 26.1349C29.7385 25.4403 29.2015 24.9609 28.3464 24.9561C25.9857 24.9449 23.6251 24.9449 21.2645 24.9561C20.4078 24.9609 19.8708 25.4372 19.8692 26.1317C19.8692 26.8246 20.4109 27.3056 21.2598 27.3184C22.4393 27.3359 23.6204 27.3232 24.7999 27.3232H24.8031ZM24.7873 35.2591C25.9936 35.2591 27.1999 35.2718 28.4062 35.2543C29.2078 35.2432 29.7259 34.7701 29.7369 34.0979C29.7464 33.4304 29.2251 32.9048 28.4409 32.8984C26.0283 32.8777 23.6141 32.8793 21.2015 32.8984C20.4031 32.9048 19.8818 33.3986 19.8708 34.066C19.8582 34.7637 20.3983 35.2464 21.2472 35.2575C22.4267 35.2718 23.6078 35.2607 24.7873 35.2607V35.2591ZM11.055 24.6662C10.5023 24.6598 10.1432 24.8796 9.92432 25.3272C9.70227 25.7812 9.76684 26.2225 10.0881 26.5856C10.5432 27.097 11.0267 27.586 11.5212 28.0591C12.1684 28.6787 12.7401 28.6883 13.381 28.0575C14.5086 26.9472 15.6172 25.8195 16.7164 24.6821C17.2786 24.1007 17.3086 23.4078 16.844 22.9156C16.3653 22.4074 15.6346 22.4441 15.0377 23.0302C14.3416 23.7136 13.6409 24.3938 12.9857 25.1154C12.6094 25.5311 12.3306 25.6586 11.9479 25.1441C11.7227 24.843 11.3999 24.6502 11.055 24.6662ZM17.1653 32.2947C17.1479 31.8041 16.9369 31.4361 16.4897 31.2195C16.0031 30.9837 15.5527 31.0872 15.1826 31.4425C14.4802 32.1179 13.7684 32.7917 13.1275 33.526C12.6535 34.0692 12.3306 34.1966 11.7968 33.5738C11.329 33.0274 10.5668 33.0991 10.1196 33.5833C9.67865 34.0612 9.67865 34.6936 10.1621 35.2304C10.5857 35.7003 11.0393 36.1448 11.4928 36.5844C12.1621 37.2327 12.7416 37.2407 13.4062 36.5812C14.5101 35.4853 15.5968 34.3702 16.6912 33.2648C16.9574 32.9956 17.1716 32.7025 17.1653 32.2947ZM10.9322 41.1449C10.5416 41.1927 10.1495 41.3616 9.92904 41.8172C9.69282 42.3046 9.77786 42.7586 10.1259 43.1425C10.5511 43.6108 11.0031 44.0552 11.455 44.498C12.1495 45.1798 12.7448 45.1878 13.4298 44.506C14.5149 43.4276 15.5889 42.338 16.6582 41.2421C17.2708 40.6145 17.329 39.9343 16.844 39.4198C16.329 38.8718 15.6456 38.9228 14.9857 39.5775C14.2739 40.2832 13.5542 40.9825 12.8786 41.7232C12.5401 42.0943 12.3101 42.0959 12.0125 41.7104C11.7621 41.3871 11.4283 41.18 10.9306 41.1433L10.9322 41.1449Z" fill="white"/>
<path d="M34.4823 18.2264C34.5091 18.1897 34.2634 18.1053 34.0398 18.1053C31.7878 18.1133 29.5359 18.1117 27.2839 18.1085C26.0902 18.1085 25.9453 17.9556 25.9453 16.7243C25.9453 14.2632 25.9453 11.8021 25.9453 9.33789C28.8052 12.3167 31.6445 15.2715 34.4823 18.2264Z" fill="white"/>
</svg>
