<svg width="20" height="36" viewBox="0 0 20 36" fill="none" xmlns="http://www.w3.org/2000/svg">
<path d="M1.18173 35.1115C0.787608 35.0778 0.394104 34.8486 0.158589 34.3936C-0.0769261 33.9386 -0.059943 33.4738 0.233482 33.054C0.398539 32.8176 0.619109 32.6181 0.831594 32.4182C5.64617 27.9026 10.4582 23.3815 15.2911 18.8853C15.7617 18.4479 15.8481 18.2267 15.3529 17.7084C10.8441 12.979 6.36995 8.21698 1.88612 3.46407C1.77768 3.35015 1.66924 3.23622 1.5622 3.121C0.858695 2.35896 0.801064 1.55744 1.4065 0.990733C2.02161 0.416233 2.78986 0.519418 3.51872 1.29032C8.51334 6.58086 13.5052 11.8727 18.4957 17.1658C19.3656 18.088 19.3526 18.7296 18.4444 19.5823C13.1215 24.5746 7.7961 29.5641 2.47327 34.5564C2.13722 34.8711 1.7878 35.1382 1.18034 35.1128L1.18173 35.1115Z" fill="white" fill-opacity="0.75"/>
</svg>
