<svg width="20" height="36" viewBox="0 0 20 36" fill="none" xmlns="http://www.w3.org/2000/svg">
<path d="M17.2684 35.0244C17.6639 35.015 18.0707 34.8103 18.3337 34.3707C18.5967 33.931 18.6083 33.4661 18.3413 33.029C18.191 32.783 17.9831 32.5702 17.7833 32.3577C13.2552 27.5549 8.72987 22.7468 4.18228 17.9622C3.73939 17.4968 3.66677 17.2707 4.19288 16.7838C8.98366 12.3403 13.7418 7.86201 18.5091 3.39345C18.6243 3.28641 18.7395 3.17936 18.8535 3.07092C19.6024 2.35353 19.7092 1.55706 19.1397 0.954244C18.561 0.34305 17.7879 0.398856 17.0131 1.12354C11.7029 6.09734 6.39545 11.0726 1.08928 16.0492C0.164427 16.9163 0.137976 17.5574 0.992118 18.4643C5.99829 23.7741 11.0072 29.0813 16.0134 34.391C16.3295 34.7258 16.6619 35.0138 17.2697 35.0258L17.2684 35.0244Z" fill="white" fill-opacity="0.75"/>
</svg>
