<svg width="167" height="91" viewBox="0 0 167 91" fill="none" xmlns="http://www.w3.org/2000/svg">
<path d="M31.9825 55.0971C37.8817 55.1858 43.9808 51.2018 45.4863 44.2239C45.9101 42.2594 45.8806 40.2879 45.3821 38.3332C45.2933 37.9854 45.206 37.6361 45.1201 37.2869C45.0821 37.1306 45.1905 36.901 45.3328 36.832C45.3736 36.8123 45.4102 36.7841 45.4525 36.7686C47.324 36.1096 49.1308 35.3012 50.894 34.3929C50.9602 34.3591 51.0869 34.3535 51.1348 34.3929C51.1883 34.438 51.2179 34.5605 51.1996 34.6337C51.1249 34.9379 51.0362 35.2407 50.9376 35.5392C48.9745 41.4792 47.0086 47.4179 45.0427 53.3579C41.1122 65.2379 37.1832 77.1179 33.2528 88.998C33.1401 89.3402 33.0345 89.6852 32.8993 90.0175C32.8373 90.171 32.7204 90.3077 32.6078 90.4358C32.536 90.5175 32.4064 90.3738 32.2952 90.057C32.1895 89.7598 32.091 89.4613 31.9924 89.1613C27.9563 76.9842 23.9203 64.8084 19.887 52.6312C17.9619 46.8208 16.0411 41.0089 14.1216 35.197C14.0231 34.8999 13.947 34.5943 13.8808 34.2873C13.8667 34.2197 13.9329 34.1282 13.9808 34.0592C13.9963 34.0366 14.0709 34.0366 14.1104 34.0507C14.278 34.1127 14.4469 34.1746 14.6089 34.2507C15.9143 34.8605 17.2409 35.4209 18.5971 35.9096C18.7661 35.9702 18.928 36.0504 19.0928 36.1237C19.2702 36.2025 19.3801 36.3884 19.335 36.549C19.2618 36.8095 19.1829 37.0672 19.104 37.3263C18.683 38.7134 18.4225 40.1259 18.4492 41.5806C18.5591 47.746 22.5782 52.8185 28.1394 54.5225C29.4378 54.9196 30.7658 55.152 31.9867 55.0971H31.9825Z" fill="#03203D"/>
<path d="M44.9572 31.8388C44.9572 32.4585 44.9628 32.9528 44.9502 33.4471C44.9487 33.5118 44.8628 33.6076 44.798 33.6273C44.729 33.6484 44.6094 33.6217 44.5615 33.5696C44.284 33.2738 44.0277 32.9598 43.7531 32.6627C41.3887 30.1039 38.4989 28.4407 35.098 27.7267C29.5692 26.5663 24.077 28.3802 20.3226 32.1275C20.1311 32.3176 19.9522 32.5204 19.7593 32.7091C19.6058 32.8598 19.4748 33.1485 19.2439 33.0626C18.9158 32.9401 19.0805 32.5965 19.089 32.3557C19.1101 31.7712 19.1819 31.1896 19.2228 30.6066C19.2932 29.6194 19.3551 28.6308 19.4199 27.6422C19.4396 27.3465 19.3199 27.1198 19.0749 26.9578C19.0003 26.9085 18.92 26.8663 18.8411 26.8226C17.0639 25.8509 15.2881 24.8764 13.5095 23.909C13.3532 23.8245 13.1785 23.7724 13.0124 23.709C12.9208 23.6738 12.7194 23.7724 12.673 23.8709C12.6349 23.9512 12.5744 24.0273 12.5575 24.1118C12.1308 26.2284 11.7111 28.3464 11.2816 30.463C11.2253 30.7432 11.2323 31.0009 11.3985 31.2361C11.714 31.6825 11.7252 32.1698 11.5464 32.6528C11.3957 33.0626 11.3929 33.4414 11.6013 33.8231C11.6224 33.8625 11.6266 33.909 11.6421 33.9512C11.9548 34.7652 11.9027 35.5355 11.3732 36.2537C11.2577 36.41 11.2675 36.5847 11.3379 36.7635C11.4365 37.0142 11.559 37.262 11.6083 37.524C11.6492 37.7366 11.6238 37.9732 11.5731 38.1858C11.5478 38.2901 11.4084 38.3802 11.3013 38.445C11.2323 38.4872 11.1253 38.4928 11.0394 38.4816C10.0578 38.352 9.08896 38.1591 8.13839 37.8774C7.82012 37.7831 7.60466 37.2648 7.78351 36.9776C7.97221 36.6748 8.21303 36.4058 8.42708 36.1213C8.53974 35.9707 8.57776 35.7988 8.53974 35.613C8.52143 35.5242 8.50876 35.4341 8.47637 35.351C8.22148 34.6906 8.42427 34.1174 8.81154 33.5794C8.8904 33.471 8.97912 33.3668 9.07629 33.2739C9.28331 33.0739 9.39033 32.8429 9.35794 32.55C9.34386 32.4162 9.34245 32.281 9.34245 32.1458C9.34245 31.8642 9.44243 31.6192 9.62551 31.4065C9.71423 31.3037 9.79449 31.1924 9.89589 31.1065C10.2282 30.8277 10.3508 30.463 10.4198 30.0475C10.7507 28.0506 11.0999 26.0565 11.4407 24.061C11.4788 23.84 11.4928 23.6146 11.5238 23.3907C11.5773 22.995 11.4619 22.6922 11.0929 22.4908C10.3043 22.0585 9.5213 21.6135 8.73972 21.1671C8.54538 21.0558 8.36653 20.9206 8.18346 20.7925C8.09333 20.7291 8.12853 20.5123 8.24119 20.4573C8.56368 20.2996 8.88336 20.1334 9.2143 19.994C14.3474 17.807 19.4805 15.6242 24.615 13.4386C27.14 12.3641 29.6635 11.2854 32.19 10.2109C33.2884 9.74333 33.2828 9.74052 34.2939 10.3897C41.1521 14.7877 48.0131 19.1829 54.8727 23.5794C55.4783 23.9681 56.0852 24.3568 56.6894 24.7483C56.8344 24.8426 57.0485 24.9173 56.9893 25.1341C56.9696 25.2074 56.7738 25.2553 56.6541 25.2722C56.0754 25.3552 55.4952 25.4285 54.9135 25.4961C53.6616 25.6411 52.4111 25.7862 51.1577 25.9199C49.5917 26.0875 48.0244 26.2382 46.4584 26.4044C46.088 26.4438 45.7388 26.3748 45.3994 26.2495C44.8924 26.0636 44.3939 25.858 43.8883 25.6665C42.1153 24.9933 40.2888 24.5089 38.4158 24.23C36.6724 23.9709 34.9163 23.9428 33.1659 24.1808C32.7688 24.2343 32.3815 24.3751 31.9956 24.492C31.9492 24.5061 31.9266 24.6244 31.9125 24.6976C31.9083 24.7173 31.9773 24.775 32.0139 24.775C32.4632 24.7919 32.911 24.8116 33.3602 24.8102C36.8527 24.8046 40.1255 25.6749 43.211 27.2817C43.5292 27.4479 43.8418 27.6324 44.1334 27.8422C44.4347 28.0577 44.6361 28.3548 44.6713 28.7407C44.7699 29.8166 44.8685 30.8911 44.9558 31.8459L44.9572 31.8388Z" fill="#03203D"/>
<path d="M32.004 53.1298C26.2344 53.2918 20.1029 48.6713 19.9648 41.1076C20.155 33.7157 26.0668 29.0811 32.0815 29.1233C38.1919 29.1656 43.8953 33.9452 44.0474 41.1174C43.9319 48.5389 37.8962 53.2904 32.004 53.1298Z" fill="#03203D"/>
<path d="M55.0583 7.18317C55.3034 6.84379 55.3541 6.84238 55.3653 6.93532C55.3907 7.15219 55.4259 7.37047 55.4273 7.58875C55.4315 8.31541 55.5554 9.02376 55.7667 9.71521C56.161 11.0122 56.8975 12.0557 58.0621 12.7796C58.2889 12.9204 58.51 13.0711 58.7311 13.2246C58.7578 13.2429 58.7719 13.302 58.7663 13.3387C58.7606 13.3795 58.7325 13.4443 58.7015 13.4527C58.5297 13.4992 58.3551 13.533 58.1804 13.5682C57.7847 13.6471 57.3834 13.7048 56.9919 13.802C55.5484 14.1597 54.5049 15.0159 53.867 16.3622C53.8092 16.4847 53.767 16.6142 53.7008 16.7311C53.66 16.8058 53.5895 16.8621 53.5318 16.9283C53.491 16.8706 53.4262 16.8185 53.4121 16.7551C53.3191 16.3608 53.2572 15.9594 53.1473 15.5707C53.0389 15.1821 52.9122 14.7948 52.7488 14.4258C52.1545 13.0852 51.1856 12.1346 49.7858 11.6431C49.7239 11.6206 49.6873 11.5079 49.6535 11.4305C49.645 11.4108 49.6859 11.353 49.7168 11.3375C49.7957 11.2967 49.8802 11.2671 49.9633 11.2375C50.1759 11.1629 50.3886 11.0925 50.6012 11.0164C52.5418 10.3165 54.0627 9.12375 55.0147 7.26204C55.0738 7.14515 55.1527 7.03813 55.0598 7.18599L55.0583 7.18317Z" fill="#03203D"/>
<path d="M12.2299 10.0183C12.1947 10 12.1342 9.98736 12.1285 9.96201C12.0201 9.52686 11.9342 9.08609 11.8075 8.65657C11.6934 8.2693 11.5652 7.88203 11.3934 7.5187C10.8766 6.42589 10.095 5.58376 8.97828 5.0796C8.77549 4.98806 8.57129 4.90075 8.37132 4.80217C8.34175 4.78809 8.32344 4.72894 8.32062 4.68951C8.3178 4.6543 8.3347 4.59516 8.35864 4.5853C8.60791 4.48532 8.85857 4.38533 9.11347 4.30224C11.1216 3.64459 12.6862 2.44476 13.6847 0.55488C13.7255 0.477426 13.7861 0.408421 13.8466 0.343642C13.872 0.316885 13.9241 0.304209 13.9621 0.307026C13.9959 0.309842 14.0536 0.339418 14.0564 0.36195C14.1212 1.07734 14.1832 1.79133 14.3536 2.49405C14.7296 4.05158 15.5253 5.30351 16.9405 6.11466C17.0969 6.20338 17.2602 6.28084 17.4095 6.38083C17.4729 6.42307 17.5545 6.52024 17.5419 6.57235C17.5264 6.63994 17.432 6.72444 17.3602 6.73852C17.1405 6.78077 16.9138 6.78359 16.6927 6.8202C16.3829 6.8709 16.0731 6.92723 15.7689 7.00187C14.3339 7.35816 13.2622 8.17494 12.6102 9.51842C12.5327 9.67755 12.4412 9.82964 12.3468 9.98032C12.3299 10.0071 12.2708 10.0057 12.2299 10.0169V10.0183Z" fill="#03203D"/>
<path d="M37.5252 4.49148C37.514 4.52809 37.514 4.57879 37.4886 4.60273C37.4591 4.63089 37.4084 4.64498 37.3647 4.6492C35.8311 4.77595 34.6116 5.41248 33.8342 6.78975C33.8075 6.83763 33.6835 6.83904 33.6047 6.84327C33.5751 6.84327 33.53 6.79679 33.5131 6.76017C33.4765 6.6799 33.4483 6.59401 33.423 6.50951C33.3596 6.29546 33.3033 6.07717 33.2357 5.86453C32.8949 4.79003 32.2626 3.95071 31.2543 3.41557C31.1374 3.35361 31.0276 3.27334 30.9233 3.19166C30.898 3.17195 30.8853 3.09731 30.9022 3.07196C30.9473 3.00436 31.0008 2.91846 31.0698 2.89593C32.6133 2.37065 33.8596 1.46796 34.72 0.0625194C34.7397 0.0301296 34.8087 -0.00930048 34.8298 0.00196555C34.896 0.0371719 34.9876 0.0864635 35.0031 0.14561C35.0664 0.406137 35.1045 0.673706 35.1566 0.938458C35.2087 1.2018 35.2453 1.47078 35.3227 1.72849C35.6311 2.75792 36.2254 3.57753 37.145 4.15068C37.2901 4.24222 37.4788 4.28869 37.5281 4.49148H37.5252Z" fill="#03203D"/>
<path d="M52.2508 35.627L65.017 64.4251L34.4375 89.0669L52.2508 35.627Z" fill="#C2975B"/>
<path d="M0 64.722L12.4693 35.627L30.2826 89.0669L0 64.722Z" fill="#C2975B"/>
<path d="M71.2542 45.9922V45.2082H71.7502C71.9315 45.2082 72.0969 45.1869 72.2462 45.1442C72.3955 45.1015 72.5182 45.0109 72.6142 44.8722C72.7102 44.7229 72.7582 44.5042 72.7582 44.2162V36.3602C72.7582 36.0615 72.7102 35.8429 72.6142 35.7042C72.5182 35.5549 72.3955 35.4589 72.2462 35.4162C72.0969 35.3735 71.9315 35.3522 71.7502 35.3522H71.2542V34.5682H75.4942L78.4062 42.8402L81.2222 34.5682H85.3822V35.3522H84.8862C84.7049 35.3522 84.5342 35.3789 84.3742 35.4322C84.2249 35.4749 84.1022 35.5709 84.0062 35.7202C83.9209 35.8695 83.8782 36.1042 83.8782 36.4242V44.1362C83.8782 44.4455 83.9209 44.6802 84.0062 44.8402C84.1022 44.9895 84.2249 45.0909 84.3742 45.1442C84.5342 45.1869 84.7049 45.2082 84.8862 45.2082H85.3822V45.9922H80.5822V45.2082H80.7102C80.9342 45.2082 81.1209 45.1869 81.2702 45.1442C81.4302 45.1015 81.5529 45.0162 81.6382 44.8882C81.7235 44.7495 81.7662 44.5469 81.7662 44.2802V36.0082L78.3742 45.9922H77.3662L73.8622 36.0242V44.1362C73.8622 44.4455 73.9102 44.6802 74.0062 44.8402C74.1022 44.9895 74.2355 45.0909 74.4062 45.1442C74.5875 45.1869 74.7955 45.2082 75.0302 45.2082H75.1102V45.9922H71.2542ZM89.1464 46.1522C88.6771 46.1522 88.2504 46.0615 87.8664 45.8802C87.4931 45.6882 87.1944 45.4002 86.9704 45.0162C86.7571 44.6322 86.6504 44.1469 86.6504 43.5602C86.6504 42.7069 86.9491 42.0722 87.5464 41.6562C88.1438 41.2402 89.0451 41.0109 90.2504 40.9682L91.5784 40.9202V40.0082C91.5784 39.6455 91.5518 39.3255 91.4984 39.0482C91.4451 38.7602 91.3331 38.5362 91.1624 38.3762C91.0024 38.2162 90.7464 38.1362 90.3944 38.1362C90.0744 38.1362 89.8238 38.2109 89.6424 38.3602C89.4611 38.5095 89.3384 38.7175 89.2744 38.9842C89.2104 39.2402 89.1784 39.5335 89.1784 39.8642C88.5598 39.8642 88.0958 39.7895 87.7864 39.6402C87.4771 39.4802 87.3224 39.2082 87.3224 38.8242C87.3224 38.4402 87.4611 38.1309 87.7384 37.8962C88.0264 37.6615 88.4104 37.4909 88.8904 37.3842C89.3704 37.2775 89.8931 37.2242 90.4584 37.2242C91.5251 37.2242 92.3251 37.4322 92.8584 37.8482C93.3918 38.2535 93.6584 38.9575 93.6584 39.9602V44.0722C93.6584 44.3602 93.6851 44.5895 93.7384 44.7602C93.8024 44.9202 93.9091 45.0375 94.0584 45.1122C94.2078 45.1762 94.3998 45.2082 94.6344 45.2082H94.6824V45.9922H92.0264L91.7064 44.7922H91.5784C91.3438 45.0802 91.1198 45.3255 90.9064 45.5282C90.7038 45.7309 90.4638 45.8855 90.1864 45.9922C89.9198 46.0989 89.5731 46.1522 89.1464 46.1522ZM89.8344 45.0482C90.1971 45.0482 90.5064 44.9629 90.7624 44.7922C91.0184 44.6215 91.2158 44.3762 91.3544 44.0562C91.5038 43.7362 91.5784 43.3629 91.5784 42.9362V41.7042L90.7464 41.7522C90.2451 41.7735 89.8504 41.8589 89.5624 42.0082C89.2851 42.1575 89.0824 42.3655 88.9544 42.6322C88.8371 42.8989 88.7784 43.2295 88.7784 43.6242C88.7784 43.9442 88.8158 44.2109 88.8904 44.4242C88.9651 44.6269 89.0824 44.7815 89.2424 44.8882C89.4024 44.9949 89.5998 45.0482 89.8344 45.0482ZM95.6578 45.9922V45.2082H95.7058C95.9511 45.2082 96.1645 45.1815 96.3458 45.1282C96.5378 45.0749 96.6871 44.9682 96.7938 44.8082C96.9111 44.6375 96.9698 44.3869 96.9698 44.0562V39.2882C96.9698 38.9682 96.9165 38.7335 96.8098 38.5842C96.7031 38.4242 96.5591 38.3229 96.3778 38.2802C96.1965 38.2269 95.9885 38.2002 95.7538 38.2002H95.7058V37.4162H98.6498L98.9538 38.7922H99.0338C99.1725 38.4722 99.3271 38.1949 99.4978 37.9602C99.6791 37.7255 99.9085 37.5495 100.186 37.4322C100.463 37.3042 100.826 37.2402 101.274 37.2402C101.882 37.2402 102.33 37.3469 102.618 37.5602C102.916 37.7735 103.066 38.0829 103.066 38.4882C103.066 38.9149 102.911 39.2562 102.602 39.5122C102.292 39.7575 101.839 39.8802 101.242 39.8802C101.242 39.5815 101.215 39.3415 101.162 39.1602C101.119 38.9682 101.039 38.8242 100.922 38.7282C100.804 38.6322 100.644 38.5842 100.442 38.5842C100.154 38.5842 99.9191 38.6909 99.7378 38.9042C99.5565 39.1069 99.4125 39.3629 99.3058 39.6722C99.2098 39.9815 99.1405 40.3015 99.0978 40.6322C99.0658 40.9629 99.0498 41.2402 99.0498 41.4642V44.1362C99.0498 44.4455 99.1031 44.6802 99.2098 44.8402C99.3165 44.9895 99.4605 45.0909 99.6418 45.1442C99.8231 45.1869 100.02 45.2082 100.234 45.2082H100.73V45.9922H95.6578ZM106.873 46.1522C106.19 46.1522 105.625 46.0775 105.177 45.9282C104.739 45.7789 104.414 45.5709 104.201 45.3042C103.987 45.0269 103.881 44.7069 103.881 44.3442C103.881 44.0135 103.955 43.7682 104.105 43.6082C104.254 43.4375 104.43 43.3255 104.633 43.2722C104.835 43.2082 105.017 43.1762 105.177 43.1762C105.177 43.5922 105.241 43.9602 105.369 44.2802C105.507 44.5895 105.705 44.8349 105.961 45.0162C106.217 45.1869 106.531 45.2722 106.905 45.2722C107.47 45.2722 107.886 45.1549 108.153 44.9202C108.419 44.6855 108.553 44.3922 108.553 44.0402C108.553 43.7949 108.494 43.5869 108.377 43.4162C108.27 43.2455 108.073 43.0802 107.785 42.9202C107.497 42.7602 107.097 42.5842 106.585 42.3922C106.03 42.1789 105.561 41.9549 105.177 41.7202C104.793 41.4749 104.505 41.1922 104.313 40.8722C104.121 40.5522 104.025 40.1522 104.025 39.6722C104.025 38.8722 104.323 38.2695 104.921 37.8642C105.518 37.4482 106.307 37.2402 107.289 37.2402C107.907 37.2402 108.409 37.3095 108.793 37.4482C109.177 37.5869 109.459 37.7735 109.641 38.0082C109.822 38.2322 109.913 38.4722 109.913 38.7282C109.913 39.0589 109.795 39.3149 109.561 39.4962C109.337 39.6775 108.974 39.7682 108.473 39.7682C108.473 39.2349 108.355 38.8242 108.121 38.5362C107.886 38.2375 107.534 38.0882 107.065 38.0882C106.798 38.0882 106.558 38.1309 106.345 38.2162C106.142 38.3015 105.982 38.4295 105.865 38.6002C105.747 38.7602 105.689 38.9575 105.689 39.1922C105.689 39.4269 105.753 39.6349 105.881 39.8162C106.009 39.9869 106.227 40.1522 106.537 40.3122C106.846 40.4722 107.267 40.6482 107.801 40.8402C108.313 41.0322 108.745 41.2455 109.097 41.4802C109.459 41.7042 109.737 41.9762 109.929 42.2962C110.121 42.6162 110.217 43.0002 110.217 43.4482C110.217 44.3122 109.918 44.9789 109.321 45.4482C108.734 45.9175 107.918 46.1522 106.873 46.1522ZM111.187 45.9922V45.2082H111.267C111.512 45.2082 111.725 45.1815 111.907 45.1282C112.099 45.0749 112.253 44.9682 112.371 44.8082C112.488 44.6482 112.547 44.4082 112.547 44.0882L112.531 35.6242C112.531 35.3255 112.467 35.1069 112.339 34.9682C112.211 34.8189 112.056 34.7229 111.875 34.6802C111.693 34.6375 111.512 34.6162 111.331 34.6162H111.155V33.8322H114.611V36.8082C114.611 37.0535 114.6 37.3149 114.579 37.5922C114.568 37.8589 114.552 38.0935 114.531 38.2962C114.52 38.4882 114.515 38.5842 114.515 38.5842H114.627C114.819 38.2109 115.037 37.9282 115.283 37.7362C115.528 37.5335 115.795 37.4002 116.083 37.3362C116.381 37.2615 116.701 37.2242 117.043 37.2242C117.896 37.2242 118.557 37.4695 119.027 37.9602C119.507 38.4509 119.747 39.2402 119.747 40.3282V44.0722C119.747 44.4029 119.789 44.6482 119.875 44.8082C119.971 44.9682 120.104 45.0749 120.275 45.1282C120.445 45.1815 120.648 45.2082 120.883 45.2082H120.931V45.9922H117.667V40.6322C117.667 39.9389 117.56 39.4055 117.347 39.0322C117.133 38.6482 116.755 38.4562 116.211 38.4562C115.827 38.4562 115.517 38.5682 115.283 38.7922C115.048 39.0162 114.877 39.3202 114.771 39.7042C114.664 40.0882 114.611 40.5149 114.611 40.9842L114.627 44.1522C114.627 44.4615 114.675 44.6909 114.771 44.8402C114.877 44.9895 115.021 45.0909 115.203 45.1442C115.384 45.1869 115.592 45.2082 115.827 45.2082H115.875V45.9922H111.187ZM126.151 46.1522C124.871 46.1522 123.885 45.7682 123.191 45.0002C122.509 44.2215 122.167 43.1389 122.167 41.7522C122.167 40.2589 122.498 39.1335 123.159 38.3762C123.831 37.6082 124.77 37.2242 125.975 37.2242C127.095 37.2242 127.97 37.5495 128.599 38.2002C129.239 38.8402 129.559 39.7949 129.559 41.0642V41.8482H124.279C124.301 42.5949 124.397 43.2029 124.567 43.6722C124.749 44.1309 124.999 44.4722 125.319 44.6962C125.65 44.9202 126.05 45.0322 126.519 45.0322C126.893 45.0322 127.223 44.9789 127.511 44.8722C127.81 44.7549 128.066 44.6055 128.279 44.4242C128.493 44.2322 128.663 44.0242 128.791 43.8002C128.909 43.8535 128.999 43.9442 129.063 44.0722C129.138 44.1895 129.175 44.3282 129.175 44.4882C129.175 44.7549 129.063 45.0162 128.839 45.2722C128.626 45.5282 128.295 45.7415 127.847 45.9122C127.41 46.0722 126.845 46.1522 126.151 46.1522ZM127.431 40.8882C127.431 40.3442 127.383 39.8695 127.287 39.4642C127.191 39.0589 127.037 38.7495 126.823 38.5362C126.621 38.3122 126.343 38.2002 125.991 38.2002C125.65 38.2002 125.357 38.3015 125.111 38.5042C124.877 38.7069 124.69 39.0109 124.551 39.4162C124.423 39.8109 124.343 40.3015 124.311 40.8882H127.431ZM130.513 45.9922V45.2082H130.721C130.913 45.2082 131.1 45.1869 131.281 45.1442C131.463 45.0909 131.612 44.9895 131.729 44.8402C131.857 44.6802 131.921 44.4455 131.921 44.1362V35.6242C131.921 35.3255 131.857 35.1069 131.729 34.9682C131.601 34.8189 131.447 34.7229 131.265 34.6802C131.084 34.6375 130.903 34.6162 130.721 34.6162H130.513V33.8322H134.001V44.1362C134.001 44.4455 134.06 44.6802 134.177 44.8402C134.305 44.9895 134.46 45.0909 134.641 45.1442C134.833 45.1869 135.02 45.2082 135.201 45.2082H135.409V45.9922H130.513ZM76.7902 68.1522C75.8942 68.1522 75.1262 68.0295 74.4862 67.7842C73.8462 67.5389 73.3555 67.1495 73.0142 66.6162C72.6729 66.0829 72.5022 65.3842 72.5022 64.5202V58.3602C72.5022 58.0615 72.4542 57.8429 72.3582 57.7042C72.2622 57.5549 72.1395 57.4589 71.9902 57.4162C71.8409 57.3735 71.6755 57.3522 71.4942 57.3522H70.9982V56.5682H76.1822V57.3522H75.6862C75.5049 57.3522 75.3342 57.3789 75.1742 57.4322C75.0249 57.4749 74.9022 57.5709 74.8062 57.7202C74.7209 57.8695 74.6782 58.1042 74.6782 58.4242V64.6322C74.6782 65.2402 74.7849 65.7255 74.9982 66.0882C75.2115 66.4402 75.5049 66.6962 75.8782 66.8562C76.2515 67.0055 76.6835 67.0802 77.1742 67.0802C77.7075 67.0802 78.1555 66.9895 78.5182 66.8082C78.8915 66.6269 79.1689 66.3549 79.3502 65.9922C79.5422 65.6295 79.6382 65.1922 79.6382 64.6802V58.3602C79.6382 58.0615 79.5902 57.8429 79.4942 57.7042C79.3982 57.5549 79.2755 57.4589 79.1262 57.4162C78.9769 57.3735 78.8115 57.3522 78.6302 57.3522H78.1342V56.5682H82.2622V57.3522H81.7502C81.5795 57.3522 81.4142 57.3789 81.2542 57.4322C81.0942 57.4749 80.9715 57.5709 80.8862 57.7202C80.8009 57.8695 80.7582 58.1042 80.7582 58.4242V64.7122C80.7582 65.4162 80.6142 66.0295 80.3262 66.5522C80.0382 67.0642 79.6009 67.4589 79.0142 67.7362C78.4275 68.0135 77.6862 68.1522 76.7902 68.1522ZM82.8914 67.9922V67.2082H82.9554C83.2008 67.2082 83.4194 67.1815 83.6114 67.1282C83.8034 67.0749 83.9528 66.9682 84.0594 66.8082C84.1768 66.6482 84.2354 66.4082 84.2354 66.0882V61.2562C84.2354 60.9469 84.1821 60.7175 84.0754 60.5682C83.9688 60.4189 83.8248 60.3229 83.6434 60.2802C83.4728 60.2269 83.2701 60.2002 83.0354 60.2002H82.9714V59.4162H86.0434L86.2514 60.6162H86.3314C86.5448 60.2109 86.7741 59.9122 87.0194 59.7202C87.2754 59.5175 87.5474 59.3842 87.8354 59.3202C88.1341 59.2562 88.4541 59.2242 88.7954 59.2242C89.6274 59.2242 90.2781 59.4695 90.7474 59.9602C91.2168 60.4509 91.4514 61.2402 91.4514 62.3282V66.0722C91.4514 66.4029 91.4941 66.6482 91.5794 66.8082C91.6754 66.9682 91.8034 67.0749 91.9634 67.1282C92.1341 67.1815 92.3368 67.2082 92.5714 67.2082H92.6354V67.9922H89.3714V62.6322C89.3714 61.9389 89.2594 61.4055 89.0354 61.0322C88.8221 60.6482 88.4488 60.4562 87.9154 60.4562C87.5101 60.4562 87.1901 60.5735 86.9554 60.8082C86.7314 61.0429 86.5661 61.3522 86.4594 61.7362C86.3634 62.1202 86.3154 62.5362 86.3154 62.9842V66.1522C86.3154 66.4615 86.3634 66.6909 86.4594 66.8402C86.5661 66.9895 86.7101 67.0909 86.8914 67.1442C87.0728 67.1869 87.2808 67.2082 87.5154 67.2082H87.5794V67.9922H82.8914ZM93.3743 67.9922V67.2082H93.5823C93.7636 67.2082 93.945 67.1869 94.1263 67.1442C94.3183 67.0909 94.473 66.9895 94.5903 66.8402C94.7183 66.6909 94.7823 66.4669 94.7823 66.1682V61.2082C94.7823 60.9095 94.7183 60.6909 94.5903 60.5522C94.4623 60.4029 94.3076 60.3069 94.1263 60.2642C93.945 60.2215 93.7636 60.2002 93.5823 60.2002H93.4383V59.4162H96.8623V66.1362C96.8623 66.4455 96.921 66.6802 97.0383 66.8402C97.1556 66.9895 97.3103 67.0909 97.5023 67.1442C97.6943 67.1869 97.881 67.2082 98.0623 67.2082H98.2543V67.9922H93.3743ZM95.7423 57.9122C95.4116 57.9122 95.129 57.8269 94.8943 57.6562C94.6703 57.4855 94.5583 57.2082 94.5583 56.8242C94.5583 56.4295 94.6703 56.1522 94.8943 55.9922C95.129 55.8215 95.417 55.7362 95.7583 55.7362C96.0783 55.7362 96.3556 55.8215 96.5903 55.9922C96.825 56.1522 96.9423 56.4295 96.9423 56.8242C96.9423 57.2082 96.825 57.4855 96.5903 57.6562C96.3556 57.8269 96.073 57.9122 95.7423 57.9122ZM99.7718 61.0002C99.6971 60.7869 99.6065 60.6215 99.4998 60.5042C99.4038 60.3869 99.2758 60.3069 99.1158 60.2642C98.9558 60.2215 98.7638 60.2002 98.5398 60.2002V59.4162H103.132V60.2002H102.636C102.412 60.2002 102.241 60.2482 102.124 60.3442C102.006 60.4402 101.948 60.5949 101.948 60.8082C101.948 60.9149 101.958 61.0269 101.98 61.1442C102.012 61.2615 102.044 61.3682 102.076 61.4642L103.164 64.4882C103.249 64.7229 103.329 64.9735 103.404 65.2402C103.489 65.5069 103.564 65.7629 103.628 66.0082C103.702 66.2429 103.761 66.4562 103.804 66.6482C103.836 66.4775 103.884 66.2855 103.948 66.0722C104.012 65.8482 104.081 65.6242 104.156 65.4002C104.241 65.1655 104.316 64.9575 104.38 64.7762L105.5 61.5922C105.553 61.4535 105.59 61.3149 105.612 61.1762C105.644 61.0375 105.66 60.9042 105.66 60.7762C105.66 60.5629 105.59 60.4135 105.452 60.3282C105.313 60.2429 105.121 60.2002 104.876 60.2002H104.54V59.4162H108.028V60.2002H107.756C107.585 60.2002 107.441 60.2322 107.324 60.2962C107.206 60.3495 107.094 60.4615 106.988 60.6322C106.881 60.8029 106.764 61.0589 106.636 61.4002L104.252 67.9922H102.38L99.7718 61.0002ZM112.823 68.1522C111.543 68.1522 110.556 67.7682 109.863 67.0002C109.18 66.2215 108.839 65.1389 108.839 63.7522C108.839 62.2589 109.17 61.1335 109.831 60.3762C110.503 59.6082 111.442 59.2242 112.647 59.2242C113.767 59.2242 114.642 59.5495 115.271 60.2002C115.911 60.8402 116.231 61.7949 116.231 63.0642V63.8482H110.951C110.972 64.5949 111.068 65.2029 111.239 65.6722C111.42 66.1309 111.671 66.4722 111.991 66.6962C112.322 66.9202 112.722 67.0322 113.191 67.0322C113.564 67.0322 113.895 66.9789 114.183 66.8722C114.482 66.7549 114.738 66.6055 114.951 66.4242C115.164 66.2322 115.335 66.0242 115.463 65.8002C115.58 65.8535 115.671 65.9442 115.735 66.0722C115.81 66.1895 115.847 66.3282 115.847 66.4882C115.847 66.7549 115.735 67.0162 115.511 67.2722C115.298 67.5282 114.967 67.7415 114.519 67.9122C114.082 68.0722 113.516 68.1522 112.823 68.1522ZM114.103 62.8882C114.103 62.3442 114.055 61.8695 113.959 61.4642C113.863 61.0589 113.708 60.7495 113.495 60.5362C113.292 60.3122 113.015 60.2002 112.663 60.2002C112.322 60.2002 112.028 60.3015 111.783 60.5042C111.548 60.7069 111.362 61.0109 111.223 61.4162C111.095 61.8109 111.015 62.3015 110.983 62.8882H114.103ZM117.345 67.9922V67.2082H117.393C117.639 67.2082 117.852 67.1815 118.033 67.1282C118.225 67.0749 118.375 66.9682 118.481 66.8082C118.599 66.6375 118.657 66.3869 118.657 66.0562V61.2882C118.657 60.9682 118.604 60.7335 118.497 60.5842C118.391 60.4242 118.247 60.3229 118.065 60.2802C117.884 60.2269 117.676 60.2002 117.441 60.2002H117.393V59.4162H120.337L120.641 60.7922H120.721C120.86 60.4722 121.015 60.1949 121.185 59.9602C121.367 59.7255 121.596 59.5495 121.873 59.4322C122.151 59.3042 122.513 59.2402 122.961 59.2402C123.569 59.2402 124.017 59.3469 124.305 59.5602C124.604 59.7735 124.753 60.0829 124.753 60.4882C124.753 60.9149 124.599 61.2562 124.289 61.5122C123.98 61.7575 123.527 61.8802 122.929 61.8802C122.929 61.5815 122.903 61.3415 122.849 61.1602C122.807 60.9682 122.727 60.8242 122.609 60.7282C122.492 60.6322 122.332 60.5842 122.129 60.5842C121.841 60.5842 121.607 60.6909 121.425 60.9042C121.244 61.1069 121.1 61.3629 120.993 61.6722C120.897 61.9815 120.828 62.3015 120.785 62.6322C120.753 62.9629 120.737 63.2402 120.737 63.4642V66.1362C120.737 66.4455 120.791 66.6802 120.897 66.8402C121.004 66.9895 121.148 67.0909 121.329 67.1442C121.511 67.1869 121.708 67.2082 121.921 67.2082H122.417V67.9922H117.345ZM128.56 68.1522C127.878 68.1522 127.312 68.0775 126.864 67.9282C126.427 67.7789 126.102 67.5709 125.888 67.3042C125.675 67.0269 125.568 66.7069 125.568 66.3442C125.568 66.0135 125.643 65.7682 125.792 65.6082C125.942 65.4375 126.118 65.3255 126.32 65.2722C126.523 65.2082 126.704 65.1762 126.864 65.1762C126.864 65.5922 126.928 65.9602 127.056 66.2802C127.195 66.5895 127.392 66.8349 127.648 67.0162C127.904 67.1869 128.219 67.2722 128.592 67.2722C129.158 67.2722 129.574 67.1549 129.84 66.9202C130.107 66.6855 130.24 66.3922 130.24 66.0402C130.24 65.7949 130.182 65.5869 130.064 65.4162C129.958 65.2455 129.76 65.0802 129.472 64.9202C129.184 64.7602 128.784 64.5842 128.272 64.3922C127.718 64.1789 127.248 63.9549 126.864 63.7202C126.48 63.4749 126.192 63.1922 126 62.8722C125.808 62.5522 125.712 62.1522 125.712 61.6722C125.712 60.8722 126.011 60.2695 126.608 59.8642C127.206 59.4482 127.995 59.2402 128.976 59.2402C129.595 59.2402 130.096 59.3095 130.48 59.4482C130.864 59.5869 131.147 59.7735 131.328 60.0082C131.51 60.2322 131.6 60.4722 131.6 60.7282C131.6 61.0589 131.483 61.3149 131.248 61.4962C131.024 61.6775 130.662 61.7682 130.16 61.7682C130.16 61.2349 130.043 60.8242 129.808 60.5362C129.574 60.2375 129.222 60.0882 128.752 60.0882C128.486 60.0882 128.246 60.1309 128.032 60.2162C127.83 60.3015 127.67 60.4295 127.552 60.6002C127.435 60.7602 127.376 60.9575 127.376 61.1922C127.376 61.4269 127.44 61.6349 127.568 61.8162C127.696 61.9869 127.915 62.1522 128.224 62.3122C128.534 62.4722 128.955 62.6482 129.488 62.8402C130 63.0322 130.432 63.2455 130.784 63.4802C131.147 63.7042 131.424 63.9762 131.616 64.2962C131.808 64.6162 131.904 65.0002 131.904 65.4482C131.904 66.3122 131.606 66.9789 131.008 67.4482C130.422 67.9175 129.606 68.1522 128.56 68.1522ZM132.874 67.9922V67.2082H133.082C133.264 67.2082 133.445 67.1869 133.626 67.1442C133.818 67.0909 133.973 66.9895 134.09 66.8402C134.218 66.6909 134.282 66.4669 134.282 66.1682V61.2082C134.282 60.9095 134.218 60.6909 134.09 60.5522C133.962 60.4029 133.808 60.3069 133.626 60.2642C133.445 60.2215 133.264 60.2002 133.082 60.2002H132.938V59.4162H136.362V66.1362C136.362 66.4455 136.421 66.6802 136.538 66.8402C136.656 66.9895 136.81 67.0909 137.002 67.1442C137.194 67.1869 137.381 67.2082 137.562 67.2082H137.754V67.9922H132.874ZM135.242 57.9122C134.912 57.9122 134.629 57.8269 134.394 57.6562C134.17 57.4855 134.058 57.2082 134.058 56.8242C134.058 56.4295 134.17 56.1522 134.394 55.9922C134.629 55.8215 134.917 55.7362 135.258 55.7362C135.578 55.7362 135.856 55.8215 136.09 55.9922C136.325 56.1522 136.442 56.4295 136.442 56.8242C136.442 57.2082 136.325 57.4855 136.09 57.6562C135.856 57.8269 135.573 57.9122 135.242 57.9122ZM141.88 68.1522C141.122 68.1522 140.541 67.9655 140.136 67.5922C139.741 67.2189 139.544 66.5682 139.544 65.6402V60.4402H138.328V59.6882C138.616 59.6882 138.888 59.6295 139.144 59.5122C139.4 59.3949 139.613 59.2509 139.784 59.0802C139.944 58.8989 140.088 58.6749 140.216 58.4082C140.344 58.1415 140.445 57.8162 140.52 57.4322H141.624V59.4162H143.688V60.4402H141.624V65.5602C141.624 66.0615 141.714 66.4349 141.896 66.6802C142.088 66.9149 142.365 67.0322 142.728 67.0322C142.941 67.0322 143.133 67.0215 143.304 67.0002C143.485 66.9682 143.661 66.9309 143.832 66.8882V67.8002C143.672 67.8749 143.416 67.9495 143.064 68.0242C142.722 68.1095 142.328 68.1522 141.88 68.1522ZM144.66 70.9682C145.215 70.9682 145.689 70.8935 146.084 70.7442C146.479 70.6055 146.809 70.4029 147.076 70.1362C147.353 69.8802 147.583 69.5709 147.764 69.2082C147.945 68.8455 148.1 68.4509 148.228 68.0242L145.316 61.0002C145.231 60.7975 145.135 60.6429 145.028 60.5362C144.932 60.4295 144.82 60.3602 144.692 60.3282C144.564 60.2855 144.415 60.2642 144.244 60.2642H144.196V59.4162H148.468V60.2002H148.42C148.121 60.2002 147.887 60.2482 147.716 60.3442C147.545 60.4402 147.46 60.6109 147.46 60.8562C147.46 60.9415 147.476 61.0429 147.508 61.1602C147.54 61.2669 147.577 61.3682 147.62 61.4642L148.74 64.3602C148.815 64.5629 148.884 64.7549 148.948 64.9362C149.012 65.1175 149.065 65.2882 149.108 65.4482C149.161 65.6082 149.204 65.7629 149.236 65.9122C149.268 66.0509 149.295 66.1789 149.316 66.2962C149.359 66.0402 149.428 65.7629 149.524 65.4642C149.631 65.1655 149.716 64.9362 149.78 64.7762L150.836 61.6402C150.879 61.5229 150.916 61.3949 150.948 61.2562C150.98 61.1069 150.996 60.9842 150.996 60.8882C150.996 60.6429 150.9 60.4669 150.708 60.3602C150.527 60.2535 150.26 60.2002 149.908 60.2002H149.844V59.4162H153.348V60.2002H153.284C153.092 60.2002 152.921 60.2375 152.772 60.3122C152.633 60.3762 152.511 60.4989 152.404 60.6802C152.297 60.8509 152.185 61.0909 152.068 61.4002L149.652 68.0242C149.375 68.8029 149.108 69.4375 148.852 69.9282C148.596 70.4189 148.303 70.8029 147.972 71.0802C147.652 71.3575 147.247 71.5495 146.756 71.6562C146.265 71.7735 145.641 71.8322 144.884 71.8322H144.66V70.9682Z" fill="#C2975B"/>
</svg>
