<svg width="26" height="26" viewBox="0 0 26 26" fill="none" xmlns="http://www.w3.org/2000/svg">
<path d="M0.00124806 7.48494C-0.0233306 6.40093 0.313889 5.47988 1.12203 4.73469C1.6785 4.22199 2.18973 3.66061 2.7285 3.12805C3.70083 2.16626 4.64465 2.15235 5.60518 3.1042C6.55293 4.04215 7.49184 4.99004 8.41698 5.95084C9.37456 6.94542 9.36375 7.85257 8.4042 8.85212C7.91361 9.36283 7.42793 9.88049 6.90195 10.3524C6.52246 10.6932 6.45265 10.9973 6.69549 11.4663C7.93032 13.8469 9.72948 15.7198 11.797 17.3582C12.4695 17.8908 13.2088 18.3141 13.9688 18.7046C14.2687 18.8586 14.4771 18.8158 14.7042 18.5764C15.2489 18.0031 15.8053 17.4417 16.3677 16.8873C17.343 15.9245 18.2652 15.9215 19.2395 16.8873C20.1862 17.8262 21.1271 18.7711 22.0552 19.7299C22.998 20.7037 22.9852 21.6575 22.0365 22.6382C21.5439 23.1469 21.0189 23.6258 20.5529 24.1574C19.615 25.2255 18.4441 25.5136 17.0893 25.3537C15.2135 25.1331 13.5225 24.3929 11.9032 23.4778C7.08482 20.7543 3.45996 16.8893 1.13383 11.816C0.505602 10.4468 0.0268099 9.02202 0.00124806 7.48494Z" fill="#C2975B"/>
<path d="M23.3991 12.2009C23.1219 12.2605 23.1789 11.9465 23.1425 11.7736C22.8712 10.4492 22.4081 9.19924 21.717 8.0437C19.7743 4.79664 16.9753 2.75879 13.2727 2.04539C12.8126 1.95696 12.672 1.797 12.7812 1.34591C12.8667 0.994176 12.9119 0.629529 12.9424 0.267862C12.966 -0.0123302 13.0781 -0.0232598 13.3239 0.0174774C19.1854 0.973311 23.9792 5.64815 25.0902 11.4805C25.159 11.8432 25.0715 11.9435 24.7411 11.9813C24.3194 12.03 23.9015 12.1174 23.3972 12.2019L23.3991 12.2009Z" fill="#C2975B"/>
<path d="M12.9224 5.06708C15.3291 5.52015 17.1932 6.70054 18.5814 8.63804C19.2804 9.61374 19.7454 10.6968 19.9991 11.8771C20.0581 12.1494 20.0364 12.2617 19.7336 12.2964C19.247 12.3531 18.7131 12.6293 18.2973 12.4971C17.8352 12.3501 17.959 11.6595 17.7713 11.2244C16.8304 9.04442 15.2515 7.63451 12.947 7.11685C12.5036 7.01749 12.4397 6.8456 12.5242 6.45711C12.6048 6.08749 12.6402 5.70595 12.6845 5.32938C12.7081 5.12868 12.769 5.00448 12.9214 5.06708H12.9224Z" fill="#C2975B"/>
</svg>
