<svg width="34" height="24" viewBox="0 0 34 24" fill="none" xmlns="http://www.w3.org/2000/svg">
<path d="M0.0266527 5.33645C2.84545 7.29305 5.56195 9.17701 8.27717 11.0634C10.7334 12.7688 13.1884 14.4755 15.6459 16.1784C16.4616 16.7448 16.696 16.7399 17.5376 16.1636C18.7276 15.3485 19.924 14.542 21.0996 13.7071C21.422 13.4793 21.6486 13.4732 22.0086 13.6603C24.7368 15.0801 27.5141 15.1256 30.3174 13.8512C31.4918 13.318 32.1715 12.461 32.1573 11.1939C32.1508 10.5721 32.8086 10.7063 33.0106 10.316C33.219 10.5512 33.1478 10.7408 33.1478 10.912C33.153 14.851 33.153 18.7913 33.1517 22.7304C33.1517 23.6908 32.8461 23.9975 31.8543 23.9975C21.6706 23.9999 11.487 23.9999 1.30204 23.9975C0.354239 23.9975 0.00334638 23.6884 0.00205157 22.856C-0.00183285 17.1721 0.000756761 11.4882 0.00205157 5.80559C0.00205157 5.68738 0.0149997 5.5704 0.0279478 5.33398L0.0266527 5.33645Z" fill="#C2975B"/>
<path d="M1.07031 3.79993C1.37589 3.62632 1.596 3.68296 1.80317 3.68296C6.95651 3.6768 12.1085 3.67434 17.2619 3.67188C18.0582 3.67188 18.0517 3.67188 17.8756 4.3762C17.1945 7.09131 17.8109 9.54169 19.6184 11.7101C19.9771 12.1411 19.9123 12.3024 19.4812 12.5757C18.6214 13.1212 17.7915 13.7098 16.9628 14.2996C16.6986 14.4868 16.5057 14.5089 16.2247 14.3131C11.2527 10.8494 6.27414 7.39422 1.29561 3.93785C1.24382 3.90214 1.18814 3.87135 1.07031 3.80117V3.79993Z" fill="#C2975B"/>
<path d="M26.3155 12.9124C22.7652 12.9124 19.7794 10.2318 19.5631 6.85174C19.3482 3.48279 21.9676 0.430286 25.4014 0.0485701C29.1447 -0.366393 32.427 1.91775 33.0472 5.36305C33.1767 6.08092 33.2233 6.78894 32.9579 7.48711C32.2988 9.22331 30.209 9.99905 28.4351 9.13588C28.0389 8.94379 27.723 8.897 27.2931 9.05338C26.0643 9.49913 24.675 9.03491 23.9357 7.9932C23.2093 6.96995 23.2818 5.63517 24.117 4.67473C24.9288 3.7426 26.3596 3.42122 27.5249 3.91129C28.7239 4.41614 29.4386 5.64872 29.2405 6.87267C29.1486 7.44402 29.4179 7.70629 30.0381 7.64842C30.7956 7.57823 31.2475 6.98965 31.197 6.14249C31.0649 3.91745 29.1551 2.07167 26.7804 1.87219C24.3889 1.67148 22.1644 3.1417 21.6439 5.31995C21.1972 7.1879 21.7552 8.80096 23.2948 10.0163C24.8485 11.2439 26.6172 11.356 28.4584 10.6073C28.5569 10.5667 28.6488 10.5113 28.7472 10.4694C29.3415 10.2182 29.8983 10.3685 30.1352 10.8425C30.3722 11.3154 30.1676 11.8288 29.6031 12.1256C28.5815 12.6637 27.4809 12.9124 26.3142 12.9112L26.3155 12.9124ZM26.3712 5.54405C25.83 5.5342 25.3794 5.95655 25.3885 6.4651C25.3962 6.94902 25.8209 7.3492 26.335 7.35905C26.8762 7.36891 27.3268 6.94779 27.3177 6.43924C27.3099 5.95655 26.884 5.55391 26.3712 5.54529V5.54405Z" fill="#C2975B"/>
</svg>
