<svg width="34" height="11" viewBox="0 0 34 11" fill="none" xmlns="http://www.w3.org/2000/svg">
<path d="M2.18519 4.55975C2.378 4.5592 2.4944 4.55887 2.61021 4.55854C6.05861 4.54866 29.5064 4.53877 32.9548 4.52889C33.1018 4.52847 33.2487 4.52077 33.3912 4.57071C33.6554 4.66337 33.8201 4.90252 33.8133 5.19494C33.8065 5.49099 33.6589 5.68675 33.3952 5.79124C33.2549 5.84684 33.1061 5.83574 32.9592 5.83617C29.5108 5.84605 6.06295 5.85593 2.61454 5.86581L2.24419 5.86687C2.2734 6.00874 2.37174 6.06548 2.4419 6.13808C3.42655 7.15197 4.41236 8.16525 5.4017 9.17427C5.57032 9.34607 5.69019 9.53075 5.66799 9.78499C5.6253 10.2734 5.09697 10.5364 4.70232 10.2634C4.62221 10.2078 4.5538 10.1321 4.48423 10.0614C3.10103 8.64339 1.71842 7.22541 0.336388 5.80622C-0.0851764 5.37368 -0.0889844 5.07038 0.321301 4.64396C1.72272 3.18828 3.1265 1.73502 4.52556 0.276915C4.7225 0.0719169 4.94208 -0.0245601 5.21389 0.0523097C5.45159 0.119571 5.59553 0.295081 5.64914 0.539399C5.71048 0.81706 5.58292 1.02307 5.40004 1.21165C4.4171 2.22754 3.43769 3.24585 2.45711 4.26415C2.38267 4.34141 2.31236 4.42169 2.18519 4.55975Z" fill="white"/>
</svg>
