<svg width="14" height="11" viewBox="0 0 14 11" fill="none" xmlns="http://www.w3.org/2000/svg">
<path d="M11.6806 5.96131C11.4878 5.95899 11.3714 5.95759 11.2556 5.9562C7.80745 5.91473 4.35987 5.87326 0.9117 5.83179C0.764744 5.83003 0.617701 5.83554 0.476054 5.78348C0.213245 5.68689 0.052124 5.44532 0.063282 5.15304C0.0744837 4.85712 0.224964 4.66358 0.490144 4.56303C0.631297 4.50952 0.779878 4.52283 0.926833 4.5246C4.375 4.56607 7.82258 4.60753 11.2707 4.649L11.6411 4.65346C11.614 4.51117 11.5165 4.45297 11.4474 4.37934C10.478 3.3509 9.50737 2.32305 8.53317 1.29941C8.36712 1.12511 8.25002 0.938672 8.276 0.684789C8.32596 0.19702 8.85815 -0.0580552 9.24869 0.220857C9.32796 0.277624 9.39524 0.354267 9.46375 0.426072C10.8257 1.86449 12.187 3.3029 13.5478 4.74251C13.9628 5.18128 13.9621 5.4846 13.5455 5.90487C12.1226 7.33952 10.6973 8.77172 9.27672 10.2088C9.07675 10.4109 8.85576 10.5041 8.58512 10.4232C8.34845 10.3524 8.20714 10.1747 8.15717 9.92963C8.09997 9.65109 8.23059 9.447 8.41625 9.26117C9.41421 8.26003 10.4087 7.25642 11.4043 6.25283C11.4799 6.17669 11.552 6.09747 11.6812 5.96131L11.6806 5.96131Z" fill="white"/>
</svg>
