<svg width="15" height="17" viewBox="0 0 15 17" fill="none" xmlns="http://www.w3.org/2000/svg">
<path d="M7.17515 16.5009C5.75645 16.5009 4.33776 16.5086 2.91906 16.4977C2.15192 16.4919 1.45711 16.2695 0.880571 15.7666C0.347292 15.3018 0.0505758 14.71 0.0167812 14.0356C-0.0589187 12.529 0.104647 11.0533 0.854887 9.68847C1.34896 8.78913 2.10529 8.21342 3.16441 8.02259C3.64632 7.93556 4.08159 7.98778 4.51484 8.25532C5.01162 8.56155 5.53611 8.85166 6.08832 9.04507C7.18326 9.4293 8.23765 9.21462 9.23256 8.68082C9.41843 8.58089 9.60633 8.4771 9.7699 8.34816C10.3376 7.90139 10.9622 7.92009 11.6185 8.10705C12.5269 8.36557 13.1602 8.93096 13.5812 9.71941C14.3416 11.1416 14.5356 12.6695 14.3707 14.2303C14.2321 15.5422 13.0453 16.4725 11.5657 16.4957C10.1024 16.5183 8.63845 16.5009 7.17447 16.5009C7.17447 16.5009 7.17447 16.5015 7.17447 16.5022L7.17515 16.5009Z" fill="#C2975B" fill-opacity="0.62"/>
<path d="M2.93753 3.98226C2.92942 1.78194 4.77866 0.00646106 7.0848 1.41652e-05C9.40581 -0.00578804 11.2767 1.77162 11.2733 3.98033C11.2699 6.17678 9.41324 7.94065 7.10305 7.94259C4.78744 7.94452 2.94564 6.19354 2.93753 3.98162V3.98226Z" fill="#C2975B" fill-opacity="0.62"/>
</svg>
