<svg width="41" height="42" viewBox="0 0 41 42" fill="none" xmlns="http://www.w3.org/2000/svg">
<path d="M0.00142504 19.0665C0.00142504 13.7504 -0.0017813 8.43427 0.00142504 3.11656C0.00142504 0.985949 1.00341 0 3.15486 0C11.3567 0 19.5585 0 27.7603 0C29.9294 0 30.9282 1.00679 30.9362 3.19512C30.9378 3.80913 30.9201 4.42475 30.941 5.03876C30.9554 5.44917 30.7967 5.57743 30.3863 5.61109C26.3495 5.93012 23.4959 7.95974 21.8286 11.6358C21.6186 12.0991 21.346 12.1745 20.9084 12.1729C17.7822 12.16 14.6576 12.1665 11.5314 12.1665C11.2909 12.1665 11.0489 12.1552 10.8116 12.1873C10.5086 12.2274 10.3306 12.431 10.329 12.7324C10.3274 13.0338 10.5118 13.2358 10.8052 13.2903C11.012 13.3287 11.2316 13.3143 11.4448 13.3143C14.4636 13.3143 17.4824 13.332 20.5012 13.3015C21.12 13.2951 21.2691 13.4346 21.152 14.063C20.9019 15.4193 20.9965 16.7868 21.4005 18.1046C21.5785 18.6849 21.4134 18.7667 20.8859 18.7603C19.1497 18.7362 17.4134 18.7507 15.6772 18.7507C14.3145 18.7507 12.9518 18.7346 11.5891 18.7587C11.1018 18.7667 10.3355 18.5262 10.3579 19.3422C10.3803 20.139 11.1435 19.8793 11.6292 19.8889C13.0176 19.9162 14.4075 19.8985 15.7975 19.8985C17.6684 19.8985 19.5376 19.9146 21.4069 19.8873C21.8911 19.8809 22.1556 20.0284 22.4153 20.4548C24.2237 23.4143 26.8689 25.0623 30.3366 25.3156C30.8512 25.3541 30.9522 25.5417 30.9442 25.9938C30.9218 27.1962 30.9009 28.4001 30.9522 29.5993C30.9795 30.2518 30.7486 30.4009 30.133 30.3993C24.283 30.3785 18.4315 30.3881 12.5815 30.3865C12.0204 30.3865 11.4561 30.3785 10.911 30.5292C9.26774 30.9812 8.15354 32.4321 8.09422 34.2052C8.07338 34.8465 8.09102 35.4878 8.08781 36.129C8.07178 38.8736 5.86261 40.4784 3.24303 39.6496C1.22464 39.0115 0.0126474 37.3041 0.00783786 35.0148C-0.00338432 29.6987 0.00463145 24.3826 0.00463145 19.0649L0.00142504 19.0665ZM17.9858 6.72369C20.0923 6.72369 22.1989 6.72369 24.3055 6.72369C24.4914 6.72369 24.679 6.7269 24.865 6.72049C25.2321 6.70766 25.4998 6.53292 25.5175 6.15777C25.5351 5.77141 25.2722 5.59346 24.9035 5.57262C24.7704 5.5646 24.6373 5.5662 24.5043 5.5662C20.1308 5.5662 15.7574 5.5662 11.3839 5.5662C11.198 5.5662 11.0104 5.5662 10.8244 5.58865C10.5182 5.62712 10.3419 5.8163 10.3306 6.1193C10.3194 6.4255 10.5038 6.6259 10.7892 6.69163C10.9928 6.73812 11.2124 6.72369 11.4256 6.72369C13.6123 6.7253 15.7991 6.72369 17.9858 6.72369ZM17.9152 26.486C20.1292 26.486 22.3416 26.486 24.5556 26.486C24.9868 26.486 25.5046 26.526 25.5095 25.9232C25.5143 25.3365 25.0205 25.3317 24.5732 25.3317C20.1468 25.3349 15.7189 25.3333 11.2925 25.3317C10.8501 25.3317 10.3499 25.3172 10.3387 25.9056C10.3258 26.5116 10.8372 26.4876 11.2733 26.4876C13.4873 26.4876 15.6997 26.4876 17.9136 26.4876L17.9152 26.486ZM6.55197 5.57743C6.08866 5.57743 5.76803 5.5646 5.4506 5.58063C5.10592 5.59827 4.8975 5.81309 4.90071 6.14495C4.90552 6.4752 5.12676 6.68361 5.46182 6.70926C5.77925 6.73331 6.10148 6.73972 6.41891 6.71888C6.91429 6.68842 7.66618 6.92249 7.66137 6.13533C7.65656 5.33855 6.89024 5.63514 6.55358 5.57743H6.55197ZM6.13034 13.3111C6.4638 13.3111 6.72993 13.3095 6.99605 13.3111C7.40486 13.3143 7.68862 13.1251 7.68061 12.7115C7.67259 12.3412 7.40165 12.1632 7.02651 12.1665C6.76039 12.1681 6.49105 12.1392 6.22974 12.1697C5.72795 12.2274 4.91835 11.9035 4.92796 12.7596C4.93758 13.5372 5.71031 13.2502 6.13034 13.3111ZM6.3099 19.8937C6.54877 19.8937 6.78924 19.8921 7.02812 19.8937C7.40646 19.8985 7.66618 19.7094 7.68061 19.3438C7.69503 18.9767 7.45296 18.7603 7.073 18.7539C6.54075 18.7475 6.0085 18.7475 5.47785 18.7571C5.13157 18.7635 4.91193 18.9751 4.90231 19.299C4.89269 19.6693 5.13477 19.8761 5.51152 19.8889C5.77764 19.8985 6.04377 19.8905 6.3099 19.8921V19.8937ZM6.27623 26.4779C6.54235 26.4779 6.80848 26.4844 7.07461 26.4779C7.45456 26.4683 7.69503 26.2599 7.68381 25.888C7.67419 25.5673 7.45456 25.3493 7.10988 25.3413C6.57763 25.3285 6.04537 25.3269 5.51312 25.3397C5.13958 25.3493 4.89109 25.5625 4.90392 25.9329C4.91674 26.3096 5.18607 26.4811 5.55801 26.4811C5.79688 26.4811 6.03736 26.4812 6.27623 26.4795V26.4779Z" fill="white"/>
<path d="M5.74609 41.0461C8.28712 39.9704 9.24581 38.5708 9.25062 35.8358C9.25062 35.3019 9.23138 34.7665 9.26184 34.2326C9.35323 32.5974 10.4145 31.573 12.0594 31.5665C15.9326 31.5521 19.8075 31.5617 23.6807 31.5617C28.1696 31.5617 32.6585 31.5585 37.1458 31.5633C39.1465 31.5649 40.1613 32.5717 40.1758 34.5532C40.1806 35.1416 40.1838 35.7284 40.1758 36.3167C40.1325 39.0966 38.1814 41.0413 35.3983 41.0445C26.956 41.0525 18.5137 41.0477 10.0698 41.0477C8.62859 41.0477 7.18734 41.0477 5.74609 41.0477V41.0461Z" fill="white"/>
<circle cx="30.9891" cy="15.5516" r="8.65711" fill="white"/>
<path d="M27.9459 13.7879C28.137 13.5288 28.3165 13.2877 28.492 13.0444C28.5251 12.9987 28.5674 13.0023 28.6138 13.0023C29.2854 13.0025 29.9571 13.0027 30.6286 13.0029C30.8198 13.0029 31.0112 13.0029 31.2027 13.0029C31.2202 12.9707 31.1958 12.9498 31.1831 12.9274C30.9782 12.5663 30.632 12.378 30.212 12.2797C29.7852 12.1796 29.3485 12.1818 28.9126 12.1775C28.5974 12.1744 28.2823 12.1769 27.9483 12.1769C28.0306 12.0644 28.1033 11.9645 28.1763 11.8648C28.278 11.7258 28.3816 11.5879 28.4808 11.4474C28.513 11.4015 28.5497 11.3848 28.6109 11.3848C30.2027 11.3866 31.7945 11.3864 33.3864 11.3864C33.6544 11.3864 33.9226 11.3864 34.1912 11.3864C34.1979 11.4257 34.168 11.4459 34.1507 11.4696C33.9955 11.6819 33.8372 11.8923 33.6844 12.1061C33.6473 12.158 33.6078 12.1787 33.5389 12.1782C33.1056 12.1756 32.6726 12.1773 32.2393 12.1775C32.2095 12.1775 32.1797 12.1775 32.1545 12.1775C32.1391 12.1951 32.1462 12.206 32.1545 12.2151C32.3477 12.4237 32.4708 12.6635 32.5363 12.927C32.5523 12.9914 32.5821 13.0049 32.6496 13.0045C33.1332 13.0016 33.6167 13.0025 34.1003 13.0029C34.1294 13.0029 34.16 12.9954 34.1977 13.0165C34.135 13.1021 34.0729 13.1869 34.0107 13.2717C33.8994 13.4231 33.7862 13.5736 33.6778 13.7266C33.6453 13.7725 33.6098 13.7905 33.5484 13.7898C33.2562 13.7867 32.964 13.7921 32.672 13.7859C32.5873 13.7841 32.5631 13.8143 32.5513 13.8791C32.4713 14.3151 32.2458 14.684 31.9024 14.9937C31.4981 15.3582 31.0036 15.5795 30.4573 15.7132C30.1953 15.7773 29.9273 15.8111 29.6345 15.8324C30.7851 17.131 31.9253 18.4176 33.0794 19.72C32.9237 19.72 32.7907 19.72 32.6577 19.72C32.332 19.72 32.0061 19.7187 31.6805 19.7212C31.6218 19.7216 31.5834 19.7087 31.5451 19.6654C30.4667 18.4456 29.387 17.2271 28.3062 16.0091C28.275 15.9738 28.2591 15.94 28.2595 15.8945C28.2615 15.6974 28.2633 15.5001 28.2585 15.3032C28.2569 15.2366 28.2837 15.223 28.3508 15.2237C28.6295 15.2264 28.9084 15.2295 29.1869 15.2237C29.6574 15.2135 30.1161 15.1477 30.5314 14.9318C30.9784 14.6994 31.2637 14.3633 31.327 13.8889C31.3375 13.8103 31.3226 13.7859 31.2273 13.7863C30.1695 13.7896 29.1115 13.7883 28.0537 13.7881C28.0245 13.7881 27.9953 13.7881 27.9453 13.7881L27.9459 13.7879Z" fill="#C2975B"/>
</svg>
