<svg width="16" height="16" viewBox="0 0 16 16" fill="none" xmlns="http://www.w3.org/2000/svg">
<path d="M12.1939 9.35073C12.9439 9.35073 13.6926 9.35698 14.4426 9.34824C15.3975 9.33699 15.995 8.81959 16 8.01476C16.0062 7.20617 15.4087 6.66753 14.4626 6.66128C12.9427 6.65128 11.4227 6.64378 9.9041 6.66753C9.47038 6.67503 9.33289 6.5513 9.34038 6.11014C9.36538 4.57045 9.35038 3.02952 9.34913 1.48983C9.34913 0.904947 9.14165 0.427544 8.59918 0.1526C8.13171 -0.0836023 7.66924 -0.0423605 7.24052 0.253829C6.7843 0.568766 6.65556 1.03492 6.65681 1.56231C6.66056 3.04076 6.62806 4.51921 6.67306 5.99517C6.69056 6.57005 6.49932 6.68378 5.96935 6.67128C4.49195 6.63629 3.0133 6.65253 1.53589 6.66253C0.695947 6.66753 0.143483 7.08744 0.0222412 7.77605C-0.130249 8.64088 0.51596 9.33824 1.5134 9.34699C3.0333 9.36073 4.5532 9.36823 6.07185 9.34074C6.53432 9.33199 6.67681 9.45821 6.66806 9.93062C6.63931 11.4491 6.64806 12.97 6.66181 14.4884C6.66931 15.4233 7.23177 16.0219 8.04047 15.9994C8.80167 15.9794 9.33539 15.407 9.34414 14.5397C9.36038 13.0412 9.38038 11.5415 9.33414 10.0443C9.31539 9.44322 9.52287 9.30699 10.0703 9.33949C10.7753 9.38198 11.4852 9.34949 12.1927 9.34949L12.1939 9.35073Z" fill="white"/>
</svg>
