<svg width="47" height="41" viewBox="0 0 47 41" fill="none" xmlns="http://www.w3.org/2000/svg">
<path d="M44.0754 32.7494L44.0755 32.7494C45.1434 30.3815 45.6631 27.8568 45.9801 25.2447L44.0754 32.7494ZM44.0754 32.7494C42.1671 36.9826 38.795 39.107 34.2376 39.5761C33.5961 39.642 33.1571 39.6839 32.8392 39.678C32.5135 39.6719 32.4377 39.6145 32.421 39.5989C32.4019 39.5812 32.3384 39.505 32.3025 39.1751C32.2675 38.8543 32.2678 38.411 32.2697 37.7665C32.2717 37.0558 32.2754 36.344 32.2791 35.6315C32.289 33.7276 32.2989 31.8186 32.2778 29.9122C32.2761 29.7564 32.2852 29.6541 32.2999 29.586C32.3098 29.5403 32.3199 29.5213 32.3233 29.5159C32.3349 29.5073 32.4109 29.4618 32.6901 29.4537C34.3158 29.4067 35.5108 29.2071 36.2673 28.4495C37.0242 27.6915 37.2179 26.4994 37.2598 24.8859L37.2598 24.8857M44.0754 32.7494L37.2598 24.8857M37.2598 24.8857C37.2825 23.998 37.2848 23.1101 37.287 22.2288L37.2874 22.092C37.2899 21.1637 37.2935 20.2425 37.3215 19.3236L37.3215 19.3236M37.2598 24.8857L37.3215 19.3236M37.3215 19.3236C37.3323 18.969 37.2907 18.5618 36.9809 18.2858M37.3215 19.3236L36.9809 18.2858M25.6518 0.935436L25.6518 0.935619C25.6631 6.50388 25.647 12.0721 25.6035 17.6402C25.6026 17.793 25.6122 17.8881 25.6258 17.9475C25.629 17.9619 25.6322 17.9724 25.6347 17.9797C25.6401 17.9816 25.6474 17.9838 25.6568 17.9862C25.71 17.9998 25.8016 18.0111 25.9553 18.0099L25.6518 0.935436ZM25.6518 0.935436C25.6514 0.781206 25.6628 0.688389 25.6767 0.633493C25.6795 0.622561 25.682 0.614329 25.6842 0.608319C25.6911 0.605898 25.7011 0.602898 25.7147 0.599721C25.7729 0.586172 25.8673 0.576294 26.0204 0.57713C32.713 0.620244 39.4058 0.639612 46.0985 0.635233C46.2398 0.635257 46.3244 0.645752 46.3739 0.65819C46.379 0.659483 46.3835 0.660716 46.3873 0.661857C46.3883 0.66538 46.3894 0.669458 46.3905 0.674119C46.4024 0.722955 46.412 0.807063 46.4104 0.94821L46.4104 0.948923M25.6518 0.935436L46.4104 0.948923M46.4104 0.948923C46.3814 3.83702 46.3752 6.72681 46.3685 9.83085C46.3664 10.8473 46.3641 11.8868 46.361 12.9567L46.3607 13.0747M46.4104 0.948923L46.3607 13.0747M46.3607 13.0747L46.3611 13.0754M46.3607 13.0747L46.3611 13.0754M46.3611 13.0754C46.347 14.0414 46.3483 15.0335 46.3496 16.0452C46.3535 18.9998 46.3576 22.1212 45.9801 25.2444L46.3611 13.0754ZM36.9809 18.2858C36.6924 18.0287 36.2972 18.0079 35.994 18.0097L36.9809 18.2858ZM32.3216 29.5173C32.3216 29.5173 32.3219 29.5171 32.3225 29.5166C32.322 29.5171 32.3217 29.5173 32.3216 29.5173ZM25.6205 17.9738C25.6205 17.9737 25.6209 17.974 25.6217 17.9744L25.6205 17.9738ZM25.64 17.9929C25.6404 17.9935 25.6406 17.9939 25.6406 17.994L25.64 17.9929ZM25.69 0.594569C25.6901 0.594515 25.6899 0.594953 25.6893 0.595787L25.69 0.594569ZM25.6713 0.613546C25.6707 0.613971 25.6703 0.614157 25.6703 0.614134L25.6713 0.613546Z" stroke="#C2975B"/>
<path d="M18.9793 32.7765L18.9794 32.7764C20.1042 30.3309 20.6369 27.7174 20.9487 25.0116L18.9793 32.7765ZM18.9793 32.7765C17.0701 36.9311 13.7332 39.0175 9.24589 39.4993L9.24575 39.4993M18.9793 32.7765L9.24575 39.4993M9.24575 39.4993C8.58632 39.5703 8.13362 39.6159 7.80525 39.6118C7.46831 39.6076 7.38625 39.5493 7.36628 39.531C7.34507 39.5116 7.27978 39.4329 7.24279 39.0964C7.20679 38.7689 7.20711 38.316 7.20902 37.6582C7.21106 36.953 7.21443 36.247 7.21781 35.5403C7.22694 33.6289 7.2361 31.713 7.21894 29.7995C7.21773 29.653 7.22708 29.5586 7.24095 29.4974C7.24867 29.4634 7.25617 29.4469 7.25962 29.4406C7.27397 29.4313 7.34914 29.3925 7.59644 29.3835L7.59678 29.3835M9.24575 39.4993L7.59678 29.3835M7.59678 29.3835C8.44669 29.3518 9.15893 29.2866 9.7452 29.1435C10.3372 28.9991 10.8314 28.7681 11.2155 28.3843C11.5996 28.0005 11.8307 27.5067 11.9748 26.9149C12.1174 26.329 12.1816 25.6174 12.2118 24.7682C12.2459 23.8309 12.2494 22.8947 12.2514 21.967C12.2515 21.9156 12.2516 21.8643 12.2518 21.8129C12.2536 20.9353 12.2554 20.0657 12.2809 19.1974C12.292 18.8476 12.2435 18.4508 11.9282 18.1877C11.6449 17.9513 11.266 17.9371 10.9944 17.9381L10.9943 17.9381M7.59678 29.3835L10.9943 17.9381M10.9943 17.9381C9.58853 17.9434 8.1749 17.9383 6.75925 17.9331C4.88228 17.9263 3.00176 17.9195 1.13129 17.937M10.9943 17.9381L1.13129 17.937M1.13129 17.937C0.944346 17.9386 0.81775 17.9303 0.729004 17.9132C0.686808 17.905 0.660533 17.8962 0.645099 17.8896C0.637614 17.8864 0.632966 17.8838 0.630403 17.8822C0.629116 17.8815 0.628229 17.8808 0.627656 17.8804C0.627118 17.88 0.626855 17.8798 0.626798 17.8798L0.626195 17.8791C0.625773 17.8786 0.624346 17.8768 0.622116 17.8731C0.617608 17.8654 0.608611 17.8475 0.59905 17.8131C0.578637 17.7395 0.562798 17.6175 0.565016 17.4186C0.626565 11.9367 0.633282 6.45712 0.619914 0.97711C0.619553 0.806008 0.628589 0.693443 0.644286 0.617293C0.652771 0.57613 0.661308 0.555204 0.665661 0.546436C0.685593 0.53582 0.775181 0.499229 1.05107 0.501942L1.05206 0.501953C7.6887 0.554041 14.3251 0.569588 20.9612 0.563218L20.9618 0.563219C21.1241 0.562861 21.226 0.574104 21.2898 0.58959C21.3148 0.595667 21.3296 0.601324 21.3373 0.604902C21.3406 0.612213 21.3457 0.62569 21.3511 0.648041C21.3661 0.709486 21.377 0.809966 21.3749 0.972536L21.3749 0.972696C21.3402 3.7192 21.3359 6.46685 21.3313 9.3753C21.3297 10.4341 21.328 11.5142 21.3248 12.6234C21.3137 13.5585 21.3143 14.5133 21.3149 15.4831C21.3168 18.5597 21.3188 21.7869 20.9487 25.0114L1.13129 17.937ZM7.26159 29.4375C7.26162 29.4374 7.26139 29.4378 7.26084 29.4385L7.26159 29.4375ZM21.3335 0.597658C21.3335 0.597617 21.3339 0.598102 21.3345 0.599229C21.3338 0.598262 21.3335 0.5977 21.3335 0.597658Z" stroke="#C2975B"/>
</svg>
