<svg width="23" height="22" viewBox="0 0 23 22" fill="none" xmlns="http://www.w3.org/2000/svg">
<path d="M3.46342 6.53775C3.35636 6.74699 3.39938 6.94053 3.39938 7.12362C3.40138 8.25663 3.41339 9.3907 3.42039 10.5237C3.42439 11.1159 3.39438 11.6243 3.9917 12.0836C4.79714 12.704 4.50798 14.0452 3.55447 14.4814C3.2563 14.6185 3.19927 14.7744 3.24029 15.0673C3.41439 16.2903 3.60849 17.5112 3.74057 18.7394C3.86163 19.8703 3.53345 20.8694 2.78105 21.7127C2.49389 22.0349 2.23675 22.1112 1.88156 21.812C1.36228 21.3747 0.809979 20.9824 0.281692 20.5577C-0.0985137 20.2511 -0.0935113 20.0335 0.294699 19.7469C1.94559 18.5239 2.35682 16.7129 2.47188 14.7576C2.48288 14.563 2.35882 14.4971 2.23375 14.4019C1.21019 13.6183 1.30425 12.3326 2.43686 11.7174C2.62996 11.6128 2.694 11.5029 2.691 11.2822C2.66798 9.66061 2.65298 8.04007 2.64397 6.41849C2.64297 6.21762 2.58594 6.09417 2.40384 6.0178C2.17172 5.92155 1.94459 5.8117 1.72147 5.69453C1.55038 5.60456 1.28524 5.59619 1.27223 5.33987C1.25722 5.03752 1.55938 5.03857 1.73548 4.94964C3.26731 4.18175 4.80514 3.42849 6.34198 2.67106C8.01388 1.84771 9.69379 1.04005 11.3557 0.192645C11.871 -0.0699473 12.3292 -0.057393 12.8325 0.189506C16.0913 1.78284 19.354 3.36468 22.6138 4.95488C22.7719 5.03229 23 5.06891 23 5.30953C23 5.55957 22.7559 5.57003 22.6038 5.64536C19.368 7.24811 16.1253 8.83622 12.8945 10.4484C12.3772 10.7068 11.919 10.6806 11.4177 10.4327C8.93438 9.20238 6.44503 7.98567 3.95768 6.76477C3.7956 6.68526 3.63051 6.61412 3.46141 6.53671L3.46342 6.53775Z" fill="#C2975B" fill-opacity="0.62"/>
<path d="M5.50142 8.47526C5.73154 8.44492 5.86561 8.56523 6.01169 8.63637C7.71562 9.46808 9.41954 10.2988 11.1165 11.1451C11.8248 11.4987 12.4972 11.5186 13.2196 11.1503C14.9836 10.2496 16.7705 9.39694 18.5405 8.50978C18.8907 8.33402 19.0217 8.32879 19.0097 8.80585C18.9817 9.95456 18.9647 11.1064 19.0117 12.2541C19.0518 13.2375 18.6355 13.9165 17.9051 14.449C17.0427 15.0777 16.0721 15.4355 15.0536 15.65C12.6563 16.1574 10.285 16.0883 7.97076 15.1928C7.58255 15.0432 7.20534 14.8465 6.84915 14.6268C5.94065 14.0661 5.40937 13.3076 5.48341 12.1118C5.55845 10.9034 5.50042 9.68569 5.50042 8.47526H5.50142Z" fill="#C2975B" fill-opacity="0.62"/>
</svg>
