<svg width="20" height="15" viewBox="0 0 20 15" fill="none" xmlns="http://www.w3.org/2000/svg">
<path d="M0 4C1.39432 4.88485 2.71365 5.72095 4.0322 6.55867C5.76397 7.65803 7.49964 8.75089 9.2236 9.86243C9.74852 10.2013 10.2266 10.198 10.7523 9.86243C13.6792 7.99604 16.6131 6.14265 19.5455 4.28601C19.6751 4.20395 19.8095 4.12919 19.9993 4.01625C19.9993 4.20395 19.9993 4.33314 19.9993 4.46152C19.9993 6.8715 20.0009 9.28066 19.9993 11.6906C19.997 13.7358 18.7792 14.9977 16.8037 14.9985C12.2622 15.0001 7.71992 15.0009 3.17842 14.9985C1.22872 14.9977 0.00390569 13.7293 0.0015623 11.7118C-0.00156223 9.28878 0.0015623 6.86581 0.0015623 4.44202V4H0Z" fill="#C2975B" fill-opacity="0.62"/>
<path d="M10.0128 0.00179807C12.3653 0.00179807 14.7178 -0.00348605 17.0703 0.00406267C18.4266 0.0085919 19.5029 0.726474 19.9487 1.87463C20.0478 2.12978 20.0137 2.26717 19.7544 2.41663C16.6047 4.23512 13.4607 6.06341 10.3222 7.90002C10.081 8.04118 9.91764 8.02759 9.68525 7.89247C6.55546 6.06719 3.4217 4.24719 0.279218 2.44079C-0.00790381 2.27547 -0.0578727 2.13205 0.057928 1.8467C0.517165 0.712132 1.57523 0.00934678 2.91646 0.00481756C5.28165 -0.00348603 7.64763 0.00255296 10.0136 0.00255296L10.0128 0.00179807Z" fill="#C2975B" fill-opacity="0.62"/>
</svg>
