<svg width="20" height="20" viewBox="0 0 20 20" fill="none" xmlns="http://www.w3.org/2000/svg">
<path d="M0.000953178 5.71672C-0.0178182 4.88884 0.239725 4.1854 0.856926 3.61628C1.28191 3.22473 1.67235 2.79599 2.08382 2.38926C2.82641 1.65471 3.54723 1.64408 4.28082 2.37104C5.00464 3.08738 5.7217 3.8113 6.42826 4.54509C7.15959 5.30468 7.15133 5.99749 6.4185 6.76087C6.04382 7.15091 5.6729 7.54626 5.27119 7.9067C4.98136 8.16698 4.92805 8.39918 5.11351 8.75735C6.05659 10.5755 7.43065 12.0059 9.00969 13.2572C9.52328 13.6639 10.0879 13.9872 10.6683 14.2854C10.8973 14.403 11.0565 14.3704 11.23 14.1875C11.6459 13.7497 12.0709 13.321 12.5004 12.8975C13.2453 12.1622 13.9496 12.1599 14.6937 12.8975C15.4167 13.6146 16.1353 14.3363 16.8441 15.0685C17.5642 15.8122 17.5544 16.5407 16.8298 17.2896C16.4537 17.6782 16.0527 18.0439 15.6968 18.4499C14.9805 19.2656 14.0862 19.4857 13.0515 19.3635C11.6189 19.1951 10.3274 18.6297 9.09078 17.9308C5.41085 15.8509 2.64246 12.899 0.865937 9.02446C0.386141 7.97879 0.0204754 6.89063 0.000953178 5.71672Z" fill="#C2975B" fill-opacity="0.62"/>
<path d="M17.8704 9.31812C17.6586 9.36365 17.7022 9.12385 17.6744 8.99182C17.4672 7.9803 17.1135 7.02569 16.5857 6.14317C15.102 3.66332 12.9643 2.10696 10.1366 1.56212C9.78519 1.49458 9.67781 1.37241 9.76116 1.0279C9.82648 0.759277 9.86102 0.480787 9.8843 0.204573C9.90232 -0.00941691 9.98792 -0.0177641 10.1756 0.0133479C14.6522 0.743342 18.3134 4.31363 19.1618 8.76796C19.2144 9.04494 19.1476 9.12158 18.8953 9.15041C18.5732 9.1876 18.2541 9.25437 17.8689 9.31887L17.8704 9.31812Z" fill="#C2975B" fill-opacity="0.62"/>
<path d="M9.86762 3.86987C11.7057 4.21589 13.1293 5.11738 14.1895 6.5971C14.7234 7.34227 15.0785 8.16939 15.2723 9.07088C15.3173 9.2788 15.3008 9.36455 15.0695 9.39111C14.6979 9.43436 14.2901 9.64532 13.9725 9.54439C13.6196 9.43209 13.7142 8.9047 13.5708 8.57233C12.8523 6.90746 11.6464 5.83068 9.88639 5.43533C9.54776 5.35945 9.49895 5.22817 9.56352 4.93147C9.62509 4.64918 9.65213 4.35779 9.68591 4.0702C9.70393 3.91691 9.75049 3.82206 9.86687 3.86987H9.86762Z" fill="#C2975B" fill-opacity="0.62"/>
</svg>
